<svg width="38" height="38" viewBox="0 0 38 38" fill="none" xmlns="http://www.w3.org/2000/svg">
<path d="M26.125 36.0208H11.875C6.65 36.0208 5.9375 33.1708 5.9375 30.0833V16.1817C5.9375 15.5325 6.47583 14.9942 7.125 14.9942C7.77417 14.9942 8.3125 15.5325 8.3125 16.1817V30.0833C8.3125 32.8383 8.7875 33.6458 11.875 33.6458H26.125C29.2125 33.6458 29.6875 32.8383 29.6875 30.0833V16.1817C29.6875 15.5325 30.2258 14.9942 30.875 14.9942C31.5242 14.9942 32.0625 15.5325 32.0625 16.1817V30.0833C32.0625 33.1708 31.35 36.0208 26.125 36.0208Z" fill="#292D32"/>
<path d="M30.0832 17.0208H7.9165C4.08484 17.0208 1.979 14.915 1.979 11.0833V7.91667C1.979 4.08501 4.08484 1.97917 7.9165 1.97917H30.0832C33.9148 1.97917 36.0207 4.08501 36.0207 7.91667V11.0833C36.0207 14.915 33.9148 17.0208 30.0832 17.0208ZM7.9165 4.35417C5.41484 4.35417 4.354 5.41501 4.354 7.91667V11.0833C4.354 13.585 5.41484 14.6458 7.9165 14.6458H30.0832C32.5848 14.6458 33.6457 13.585 33.6457 11.0833V7.91667C33.6457 5.41501 32.5848 4.35417 30.0832 4.35417H7.9165Z" fill="#292D32"/>
<path d="M21.8815 23.3542H16.1182C15.469 23.3542 14.9307 22.8158 14.9307 22.1667C14.9307 21.5175 15.469 20.9792 16.1182 20.9792H21.8815C22.5307 20.9792 23.069 21.5175 23.069 22.1667C23.069 22.8158 22.5307 23.3542 21.8815 23.3542Z" fill="#292D32"/>
</svg>
