<svg width="24" height="25" viewBox="0 0 24 25" fill="none" xmlns="http://www.w3.org/2000/svg">
<path d="M15 23.6041H9C3.57 23.6041 1.25 21.2841 1.25 15.8541V9.8541C1.25 4.4241 3.57 2.1041 9 2.1041H15C20.43 2.1041 22.75 4.4241 22.75 9.8541V15.8541C22.75 21.2841 20.43 23.6041 15 23.6041ZM9 3.6041C4.39 3.6041 2.75 5.2441 2.75 9.8541V15.8541C2.75 20.4641 4.39 22.1041 9 22.1041H15C19.61 22.1041 21.25 20.4641 21.25 15.8541V9.8541C21.25 5.2441 19.61 3.6041 15 3.6041H9Z" fill="#EFF6FF"/>
<path d="M14.1098 18.4641C13.9198 18.4641 13.7298 18.3941 13.5798 18.2441C13.2898 17.9541 13.2898 17.4741 13.5798 17.1841L16.6198 14.1441C16.9098 13.8541 17.3898 13.8541 17.6798 14.1441C17.9698 14.4341 17.9698 14.9141 17.6798 15.2041L14.6398 18.2441C14.4998 18.3841 14.3098 18.4641 14.1098 18.4641Z" fill="#EFF6FF"/>
<path d="M17.1501 15.4241H6.8501C6.4401 15.4241 6.1001 15.0841 6.1001 14.6741C6.1001 14.2641 6.4401 13.9241 6.8501 13.9241H17.1601C17.5701 13.9241 17.9101 14.2641 17.9101 14.6741C17.9101 15.0841 17.5701 15.4241 17.1501 15.4241Z" fill="#EFF6FF"/>
<path d="M6.85004 11.7841C6.66004 11.7841 6.47004 11.7141 6.32004 11.5641C6.03004 11.2741 6.03004 10.7941 6.32004 10.5041L9.36004 7.46411C9.65004 7.17411 10.13 7.17411 10.42 7.46411C10.71 7.75411 10.71 8.23411 10.42 8.52411L7.38004 11.5641C7.23004 11.7141 7.04004 11.7841 6.85004 11.7841Z" fill="#EFF6FF"/>
<path d="M17.1501 11.7841H6.8501C6.4401 11.7841 6.1001 11.4441 6.1001 11.0341C6.1001 10.6241 6.4401 10.2841 6.8501 10.2841H17.1601C17.5701 10.2841 17.9101 10.6241 17.9101 11.0341C17.9101 11.4441 17.5701 11.7841 17.1501 11.7841Z" fill="#EFF6FF"/>
</svg>
