<svg width="24" height="25" viewBox="0 0 24 25" fill="none" xmlns="http://www.w3.org/2000/svg">
<path d="M12 22.9341C11.7 22.9341 11.4 22.8641 11.15 22.7241C9.28 21.7041 5.99 20.6241 3.93 20.3541L3.64 20.3141C2.33 20.1541 1.25 18.9241 1.25 17.5941V5.51413C1.25 4.72413 1.56 4.00413 2.13 3.48413C2.7 2.96413 3.44 2.71413 4.22 2.78413C6.42 2.95413 9.74 4.05413 11.62 5.23413L11.86 5.37413C11.93 5.41413 12.08 5.41413 12.14 5.38413L12.3 5.28413C14.18 4.10413 17.5 2.98413 19.71 2.79413C19.73 2.79413 19.81 2.79413 19.83 2.79413C20.56 2.72413 21.31 2.98413 21.87 3.50413C22.44 4.02413 22.75 4.74413 22.75 5.53413V17.6041C22.75 18.9441 21.67 20.1641 20.35 20.3241L20.02 20.3641C17.96 20.6341 14.66 21.7241 12.83 22.7341C12.59 22.8741 12.3 22.9341 12 22.9341ZM3.98 4.27413C3.66 4.27413 3.37 4.38413 3.14 4.59413C2.89 4.82413 2.75 5.15413 2.75 5.51413V17.5941C2.75 18.1841 3.26 18.7541 3.83 18.8341L4.13 18.8741C6.38 19.1741 9.83 20.3041 11.83 21.3941C11.92 21.4341 12.05 21.4441 12.1 21.4241C14.1 20.3141 17.57 19.1741 19.83 18.8741L20.17 18.8341C20.74 18.7641 21.25 18.1841 21.25 17.5941V5.52413C21.25 5.15413 21.11 4.83413 20.86 4.59413C20.6 4.36413 20.27 4.25413 19.9 4.27413C19.88 4.27413 19.8 4.27413 19.78 4.27413C17.87 4.44413 14.79 5.47413 13.11 6.52413L12.95 6.63413C12.4 6.97413 11.62 6.97413 11.09 6.64413L10.85 6.50413C9.14 5.45413 6.06 4.43413 4.1 4.27413C4.06 4.27413 4.02 4.27413 3.98 4.27413Z" fill="#EFF6FF"/>
<path d="M12 22.0941C11.59 22.0941 11.25 21.7541 11.25 21.3441V6.34412C11.25 5.93412 11.59 5.59412 12 5.59412C12.41 5.59412 12.75 5.93412 12.75 6.34412V21.3441C12.75 21.7641 12.41 22.0941 12 22.0941Z" fill="#EFF6FF"/>
<path d="M7.75 10.0941H5.5C5.09 10.0941 4.75 9.75412 4.75 9.34412C4.75 8.93412 5.09 8.59412 5.5 8.59412H7.75C8.16 8.59412 8.5 8.93412 8.5 9.34412C8.5 9.75412 8.16 10.0941 7.75 10.0941Z" fill="#EFF6FF"/>
<path d="M8.5 13.0941H5.5C5.09 13.0941 4.75 12.7541 4.75 12.3441C4.75 11.9341 5.09 11.5941 5.5 11.5941H8.5C8.91 11.5941 9.25 11.9341 9.25 12.3441C9.25 12.7541 8.91 13.0941 8.5 13.0941Z" fill="#EFF6FF"/>
</svg>
