<svg width="24" height="25" viewBox="0 0 24 25" fill="none" xmlns="http://www.w3.org/2000/svg">
<path d="M16 23.6041H7.99998C3.37998 23.6041 2.51998 21.4541 2.29998 19.3641L1.54998 11.3541C1.43998 10.3041 1.40998 8.75414 2.44998 7.59414C3.34998 6.59414 4.83998 6.11414 6.99998 6.11414H17C19.17 6.11414 20.66 6.60414 21.55 7.59414C22.59 8.75414 22.56 10.3041 22.45 11.3641L21.7 19.3541C21.48 21.4541 20.62 23.6041 16 23.6041ZM6.99998 7.60414C5.30998 7.60414 4.14998 7.93414 3.55998 8.59414C3.06998 9.13414 2.90998 9.96414 3.03998 11.2041L3.78998 19.2141C3.95998 20.7941 4.38998 22.1041 7.99998 22.1041H16C19.6 22.1041 20.04 20.7941 20.21 19.2041L20.96 11.2141C21.09 9.96414 20.93 9.13414 20.44 8.59414C19.85 7.93414 18.69 7.60414 17 7.60414H6.99998Z" fill="#EFF6FF"/>
<path d="M16 7.60413C15.59 7.60413 15.25 7.26413 15.25 6.85413V6.05413C15.25 4.27413 15.25 3.60413 12.8 3.60413H11.2C8.75 3.60413 8.75 4.27413 8.75 6.05413V6.85413C8.75 7.26413 8.41 7.60413 8 7.60413C7.59 7.60413 7.25 7.26413 7.25 6.85413V6.05413C7.25 4.29413 7.25 2.10413 11.2 2.10413H12.8C16.75 2.10413 16.75 4.29413 16.75 6.05413V6.85413C16.75 7.26413 16.41 7.60413 16 7.60413Z" fill="#EFF6FF"/>
<path d="M12 17.6041C9.25 17.6041 9.25 15.9041 9.25 14.8841V13.8541C9.25 12.4441 9.59 12.1041 11 12.1041H13C14.41 12.1041 14.75 12.4441 14.75 13.8541V14.8541C14.75 15.8941 14.75 17.6041 12 17.6041ZM10.75 13.6041C10.75 13.6841 10.75 13.7741 10.75 13.8541V14.8841C10.75 15.9141 10.75 16.1041 12 16.1041C13.25 16.1041 13.25 15.9441 13.25 14.8741V13.8541C13.25 13.7741 13.25 13.6841 13.25 13.6041C13.17 13.6041 13.08 13.6041 13 13.6041H11C10.92 13.6041 10.83 13.6041 10.75 13.6041Z" fill="#EFF6FF"/>
<path d="M14 15.6241C13.63 15.6241 13.3 15.3441 13.26 14.9641C13.21 14.5541 13.5 14.1741 13.91 14.1241C16.55 13.7941 19.08 12.7941 21.21 11.2441C21.54 10.9941 22.01 11.0741 22.26 11.4141C22.5 11.7441 22.43 12.2141 22.09 12.4641C19.75 14.1641 16.99 15.2541 14.09 15.6241C14.06 15.6241 14.03 15.6241 14 15.6241Z" fill="#EFF6FF"/>
<path d="M9.99999 15.6342C9.96999 15.6342 9.93999 15.6342 9.90999 15.6342C7.16999 15.3242 4.49999 14.3242 2.18999 12.7442C1.84999 12.5142 1.75999 12.0442 1.98999 11.7042C2.21999 11.3642 2.68999 11.2742 3.02999 11.5042C5.13999 12.9442 7.56999 13.8542 10.07 14.1442C10.48 14.1942 10.78 14.5642 10.73 14.9742C10.7 15.3542 10.38 15.6342 9.99999 15.6342Z" fill="#EFF6FF"/>
</svg>
