<svg width="24" height="24" viewBox="0 0 24 24" fill="none" xmlns="http://www.w3.org/2000/svg">
<path fill-rule="evenodd" clip-rule="evenodd" d="M2 6.85714C2 6.38376 2.38376 6 2.85714 6L20.5714 6C21.0448 6 21.4286 6.38376 21.4286 6.85714C21.4286 7.33053 21.0448 7.71429 20.5714 7.71429L2.85714 7.71429C2.38376 7.71429 2 7.33053 2 6.85714Z" fill="#142452"/>
<path fill-rule="evenodd" clip-rule="evenodd" d="M2 12C2 11.5266 2.38376 11.1428 2.85714 11.1428L20.5714 11.1428C21.0448 11.1428 21.4286 11.5266 21.4286 12C21.4286 12.4734 21.0448 12.8571 20.5714 12.8571L2.85714 12.8571C2.38376 12.8571 2 12.4734 2 12Z" fill="#142452"/>
<path fill-rule="evenodd" clip-rule="evenodd" d="M2 17.1428C2 16.6694 2.38376 16.2856 2.85714 16.2856L20.5714 16.2856C21.0448 16.2856 21.4286 16.6694 21.4286 17.1428C21.4286 17.6162 21.0448 17.9999 20.5714 17.9999L2.85714 17.9999C2.38376 17.9999 2 17.6162 2 17.1428Z" fill="#142452"/>
</svg>
