<svg width="23" height="24" viewBox="0 0 23 24" fill="none" xmlns="http://www.w3.org/2000/svg">
<rect y="0.70816" width="23" height="23" rx="4" fill="#172554" fill-opacity="0.6"/>
<path d="M14.5 15.7707H8.5C8.1925 15.7707 7.9375 15.5157 7.9375 15.2082V9.20816C7.9375 8.90066 8.1925 8.64566 8.5 8.64566H14.5C14.8075 8.64566 15.0625 8.90066 15.0625 9.20816V15.2082C15.0625 15.5157 14.8075 15.7707 14.5 15.7707ZM9.0625 14.6457H13.9375V9.77066H9.0625V14.6457Z" fill="#EFF6FF"/>
<path d="M6.25 20.2707C4.6975 20.2707 3.4375 19.0107 3.4375 17.4582C3.4375 15.9057 4.6975 14.6457 6.25 14.6457H8.5C8.8075 14.6457 9.0625 14.9007 9.0625 15.2082V17.4582C9.0625 19.0107 7.8025 20.2707 6.25 20.2707ZM6.25 15.7707C5.32 15.7707 4.5625 16.5282 4.5625 17.4582C4.5625 18.3882 5.32 19.1457 6.25 19.1457C7.18 19.1457 7.9375 18.3882 7.9375 17.4582V15.7707H6.25Z" fill="#EFF6FF"/>
<path d="M8.5 9.77066H6.25C4.6975 9.77066 3.4375 8.51066 3.4375 6.95816C3.4375 5.40566 4.6975 4.14566 6.25 4.14566C7.8025 4.14566 9.0625 5.40566 9.0625 6.95816V9.20816C9.0625 9.51566 8.8075 9.77066 8.5 9.77066ZM6.25 5.27066C5.32 5.27066 4.5625 6.02816 4.5625 6.95816C4.5625 7.88816 5.32 8.64566 6.25 8.64566H7.9375V6.95816C7.9375 6.02816 7.18 5.27066 6.25 5.27066Z" fill="#EFF6FF"/>
<path d="M16.75 9.77066H14.5C14.1925 9.77066 13.9375 9.51566 13.9375 9.20816V6.95816C13.9375 5.40566 15.1975 4.14566 16.75 4.14566C18.3025 4.14566 19.5625 5.40566 19.5625 6.95816C19.5625 8.51066 18.3025 9.77066 16.75 9.77066ZM15.0625 8.64566H16.75C17.68 8.64566 18.4375 7.88816 18.4375 6.95816C18.4375 6.02816 17.68 5.27066 16.75 5.27066C15.82 5.27066 15.0625 6.02816 15.0625 6.95816V8.64566Z" fill="#EFF6FF"/>
<path d="M16.75 20.2707C15.1975 20.2707 13.9375 19.0107 13.9375 17.4582V15.2082C13.9375 14.9007 14.1925 14.6457 14.5 14.6457H16.75C18.3025 14.6457 19.5625 15.9057 19.5625 17.4582C19.5625 19.0107 18.3025 20.2707 16.75 20.2707ZM15.0625 15.7707V17.4582C15.0625 18.3882 15.82 19.1457 16.75 19.1457C17.68 19.1457 18.4375 18.3882 18.4375 17.4582C18.4375 16.5282 17.68 15.7707 16.75 15.7707H15.0625Z" fill="#EFF6FF"/>
</svg>
