<svg width="19" height="19" viewBox="0 0 19 19" fill="none" xmlns="http://www.w3.org/2000/svg">
<path d="M12.5 12.7707H6.5C6.1925 12.7707 5.9375 12.5157 5.9375 12.2082V6.20816C5.9375 5.90066 6.1925 5.64566 6.5 5.64566H12.5C12.8075 5.64566 13.0625 5.90066 13.0625 6.20816V12.2082C13.0625 12.5157 12.8075 12.7707 12.5 12.7707ZM7.0625 11.6457H11.9375V6.77066H7.0625V11.6457Z" fill="#EFF6FF"/>
<path d="M4.25 17.2707C2.6975 17.2707 1.4375 16.0107 1.4375 14.4582C1.4375 12.9057 2.6975 11.6457 4.25 11.6457H6.5C6.8075 11.6457 7.0625 11.9007 7.0625 12.2082V14.4582C7.0625 16.0107 5.8025 17.2707 4.25 17.2707ZM4.25 12.7707C3.32 12.7707 2.5625 13.5282 2.5625 14.4582C2.5625 15.3882 3.32 16.1457 4.25 16.1457C5.18 16.1457 5.9375 15.3882 5.9375 14.4582V12.7707H4.25Z" fill="#EFF6FF"/>
<path d="M6.5 6.77066H4.25C2.6975 6.77066 1.4375 5.51066 1.4375 3.95816C1.4375 2.40566 2.6975 1.14566 4.25 1.14566C5.8025 1.14566 7.0625 2.40566 7.0625 3.95816V6.20816C7.0625 6.51566 6.8075 6.77066 6.5 6.77066ZM4.25 2.27066C3.32 2.27066 2.5625 3.02816 2.5625 3.95816C2.5625 4.88816 3.32 5.64566 4.25 5.64566H5.9375V3.95816C5.9375 3.02816 5.18 2.27066 4.25 2.27066Z" fill="#EFF6FF"/>
<path d="M14.75 6.77066H12.5C12.1925 6.77066 11.9375 6.51566 11.9375 6.20816V3.95816C11.9375 2.40566 13.1975 1.14566 14.75 1.14566C16.3025 1.14566 17.5625 2.40566 17.5625 3.95816C17.5625 5.51066 16.3025 6.77066 14.75 6.77066ZM13.0625 5.64566H14.75C15.68 5.64566 16.4375 4.88816 16.4375 3.95816C16.4375 3.02816 15.68 2.27066 14.75 2.27066C13.82 2.27066 13.0625 3.02816 13.0625 3.95816V5.64566Z" fill="#EFF6FF"/>
<path d="M14.75 17.2707C13.1975 17.2707 11.9375 16.0107 11.9375 14.4582V12.2082C11.9375 11.9007 12.1925 11.6457 12.5 11.6457H14.75C16.3025 11.6457 17.5625 12.9057 17.5625 14.4582C17.5625 16.0107 16.3025 17.2707 14.75 17.2707ZM13.0625 12.7707V14.4582C13.0625 15.3882 13.82 16.1457 14.75 16.1457C15.68 16.1457 16.4375 15.3882 16.4375 14.4582C16.4375 13.5282 15.68 12.7707 14.75 12.7707H13.0625Z" fill="#EFF6FF"/>
</svg>
