<svg width="20" height="20" viewBox="0 0 20 20" fill="none" xmlns="http://www.w3.org/2000/svg">
<path d="M14.1666 18.9584H5.83329C2.15829 18.9584 1.04163 17.8417 1.04163 14.1667V5.83342C1.04163 2.15841 2.15829 1.04175 5.83329 1.04175H7.08329C8.54163 1.04175 8.99996 1.51675 9.58329 2.29175L10.8333 3.95841C11.1083 4.32508 11.15 4.37508 11.6666 4.37508H14.1666C17.8416 4.37508 18.9583 5.49175 18.9583 9.16675V14.1667C18.9583 17.8417 17.8416 18.9584 14.1666 18.9584ZM5.83329 2.29175C2.84996 2.29175 2.29163 2.85841 2.29163 5.83342V14.1667C2.29163 17.1417 2.84996 17.7084 5.83329 17.7084H14.1666C17.15 17.7084 17.7083 17.1417 17.7083 14.1667V9.16675C17.7083 6.19175 17.15 5.62508 14.1666 5.62508H11.6666C10.6 5.62508 10.25 5.25842 9.83329 4.70842L8.58329 3.04175C8.14996 2.46675 8.01663 2.29175 7.08329 2.29175H5.83329Z" fill="#292D32"/>
<path d="M16.6666 5.94175C16.325 5.94175 16.0416 5.65841 16.0416 5.31675V4.16675C16.0416 2.85008 15.4833 2.29175 14.1666 2.29175H6.66663C6.32496 2.29175 6.04163 2.00841 6.04163 1.66675C6.04163 1.32508 6.32496 1.04175 6.66663 1.04175H14.1666C16.1833 1.04175 17.2916 2.15008 17.2916 4.16675V5.31675C17.2916 5.65841 17.0083 5.94175 16.6666 5.94175Z" fill="#292D32"/>
</svg>
