<svg width="24" height="24" viewBox="0 0 24 24" fill="none" xmlns="http://www.w3.org/2000/svg">
<path d="M18 18L15 12L12 18" stroke="#142452" stroke-width="1.5" stroke-linecap="round" stroke-linejoin="round"/>
<path d="M13.1875 15.5938H16.7875" stroke="#142452" stroke-width="1.5" stroke-linecap="round" stroke-linejoin="round"/>
<path d="M9 22H15C20 22 22 20 22 15V9C22 4 20 2 15 2H9C4 2 2 4 2 9V15C2 20 4 22 9 22Z" stroke="#142452" stroke-width="1.5" stroke-linecap="round" stroke-linejoin="round"/>
<path d="M8.22741 7.26382L8.21874 7.25218C8.07766 7.06272 8.04806 6.84471 8.14645 6.62011M8.22741 7.26382L8.16438 6.62796M8.22741 7.26382L8.24107 7.2589M8.22741 7.26382L8.24107 7.2589M8.14645 6.62011L8.16438 6.62796M8.14645 6.62011C8.14645 6.62011 8.14645 6.62012 8.14645 6.62012L8.16438 6.62796M8.14645 6.62011C8.20086 6.49563 8.27896 6.4022 8.37801 6.33764C8.47693 6.27316 8.59569 6.23816 8.73054 6.22879C9.10949 6.20243 9.35601 5.9395 9.33975 5.59483M8.16438 6.62796C8.27044 6.3853 8.46731 6.26671 8.7319 6.24831C9.12016 6.22131 9.37613 5.95046 9.3593 5.5939M9.33975 5.59483L9.3593 5.5939M9.33975 5.59483C9.32349 5.25184 9.0488 5.01247 8.672 5.01973L9.3593 5.5939M9.33975 5.59483C9.33975 5.59483 9.33975 5.59483 9.33975 5.59483L9.3593 5.5939M8.24107 7.2589C8.34123 7.22281 8.43936 7.18627 8.53636 7.15016C8.74419 7.07279 8.94683 6.99735 9.15305 6.93234L9.15306 6.93234M8.24107 7.2589L9.15306 6.93234M9.15306 6.93234C9.50869 6.82001 9.83362 6.99092 9.93828 7.32424C10.0408 7.65056 9.8621 7.97497 9.50337 8.08717L9.15306 6.93234ZM6.90655 7.14911C6.72074 6.06673 7.5809 5.04103 8.672 5.01973L11.2126 10.163C11.2126 10.163 11.2126 10.163 11.2126 10.163C11.1283 11.5461 9.87147 12.6167 8.50224 12.4723C7.0845 12.3232 6.08238 11.0489 6.27846 9.65536L6.27846 9.65535C6.36353 9.04941 6.63727 8.54316 7.06093 8.11094C7.09437 8.07693 7.13475 8.05229 7.15911 8.03743C7.16639 8.03299 7.17225 8.02942 7.17605 8.02673L7.18789 8.01837L7.18335 8.00461C7.1486 7.89948 7.1117 7.80014 7.07631 7.70488C7.05781 7.65507 7.03972 7.60637 7.02257 7.55854C6.97243 7.41873 6.92994 7.28537 6.90655 7.14911ZM7.4876 9.76528L7.50684 9.76888L8.1859 8.75517L8.17391 8.73971C8.1739 8.73971 8.1739 8.73972 8.1739 8.73972C7.83435 9.00324 7.57021 9.32327 7.4876 9.76527C7.4876 9.76528 7.4876 9.76528 7.4876 9.76528Z" fill="#142452" stroke="#12131A" stroke-width="0.0391391"/>
</svg>
