<svg width="24" height="25" viewBox="0 0 24 25" fill="none" xmlns="http://www.w3.org/2000/svg">
<path d="M7.7998 15.4041C7.3898 15.4041 7.0498 15.0641 7.0498 14.6541V10.4541C7.0498 10.0441 7.3898 9.70407 7.7998 9.70407C8.2098 9.70407 8.5498 10.0441 8.5498 10.4541V14.6541C8.5498 15.0641 8.2098 15.4041 7.7998 15.4041Z" fill="#EFF6FF"/>
<path d="M7.95001 19.6041C6.46001 19.6041 5.25 18.3941 5.25 16.9041C5.25 15.4141 6.46001 14.2041 7.95001 14.2041C9.44001 14.2041 10.65 15.4141 10.65 16.9041C10.65 18.3941 9.44001 19.6041 7.95001 19.6041ZM7.95001 15.7041C7.29001 15.7041 6.75 16.2441 6.75 16.9041C6.75 17.5641 7.29001 18.1041 7.95001 18.1041C8.61001 18.1041 9.15002 17.5641 9.15002 16.9041C9.15002 16.2441 8.61001 15.7041 7.95001 15.7041Z" fill="#EFF6FF"/>
<path d="M7.79999 11.2041C6.38999 11.2041 5.25 10.0641 5.25 8.65408C5.25 7.24408 6.38999 6.1041 7.79999 6.1041C9.20999 6.1041 10.35 7.24408 10.35 8.65408C10.35 10.0641 9.20999 11.2041 7.79999 11.2041ZM7.79999 7.6041C7.21999 7.6041 6.75 8.07408 6.75 8.65408C6.75 9.23408 7.21999 9.7041 7.79999 9.7041C8.37999 9.7041 8.84998 9.23408 8.84998 8.65408C8.84998 8.07408 8.37999 7.6041 7.79999 7.6041Z" fill="#EFF6FF"/>
<path d="M16.1999 11.2041C14.7899 11.2041 13.6499 10.0641 13.6499 8.65408C13.6499 7.24408 14.7899 6.1041 16.1999 6.1041C17.6099 6.1041 18.7499 7.24408 18.7499 8.65408C18.7499 10.0641 17.6099 11.2041 16.1999 11.2041ZM16.1999 7.6041C15.6199 7.6041 15.1499 8.07408 15.1499 8.65408C15.1499 9.23408 15.6199 9.7041 16.1999 9.7041C16.7799 9.7041 17.2499 9.23408 17.2499 8.65408C17.2499 8.07408 16.7799 7.6041 16.1999 7.6041Z" fill="#EFF6FF"/>
<path d="M7.88009 15.4041C7.82009 15.4041 7.75009 15.3941 7.69009 15.3841C7.29009 15.2841 7.05011 14.8741 7.15011 14.4741C7.51011 13.0641 8.78007 12.0941 10.2301 12.0941H10.2401L12.3001 12.1041H12.3101C13.5201 12.1041 14.5901 11.3441 14.9901 10.2041C15.1301 9.81412 15.5601 9.60412 15.9401 9.74412C16.3301 9.88412 16.5401 10.3041 16.4001 10.7041C15.7901 12.4541 14.1501 13.6241 12.2901 13.6141L10.2301 13.6041C10.2301 13.6041 10.2301 13.6041 10.2201 13.6041C9.45006 13.6041 8.78011 14.1241 8.59011 14.8641C8.52011 15.1841 8.21009 15.4041 7.88009 15.4041Z" fill="#EFF6FF"/>
<path d="M15 23.6041H9C3.57 23.6041 1.25 21.2841 1.25 15.8541V9.8541C1.25 4.4241 3.57 2.1041 9 2.1041H15C20.43 2.1041 22.75 4.4241 22.75 9.8541V15.8541C22.75 21.2841 20.43 23.6041 15 23.6041ZM9 3.6041C4.39 3.6041 2.75 5.2441 2.75 9.8541V15.8541C2.75 20.4641 4.39 22.1041 9 22.1041H15C19.61 22.1041 21.25 20.4641 21.25 15.8541V9.8541C21.25 5.2441 19.61 3.6041 15 3.6041H9Z" fill="#EFF6FF"/>
</svg>
