<svg width="24" height="25" viewBox="0 0 24 25" fill="none" xmlns="http://www.w3.org/2000/svg">
<path d="M17.79 23.6041H6.21C3.47 23.6041 1.25 21.3741 1.25 18.6341V11.2241C1.25 9.8641 2.09 8.1541 3.17 7.3141L8.56 3.1141C10.18 1.8541 12.77 1.7941 14.45 2.9741L20.63 7.3041C21.82 8.1341 22.75 9.9141 22.75 11.3641V18.6441C22.75 21.3741 20.53 23.6041 17.79 23.6041ZM9.48 4.2941L4.09 8.4941C3.38 9.0541 2.75 10.3241 2.75 11.2241V18.6341C2.75 20.5441 4.3 22.1041 6.21 22.1041H17.79C19.7 22.1041 21.25 20.5541 21.25 18.6441V11.3641C21.25 10.4041 20.56 9.0741 19.77 8.5341L13.59 4.2041C12.45 3.4041 10.57 3.4441 9.48 4.2941Z" fill="#EFF6FF"/>
<path d="M12 19.6041C11.59 19.6041 11.25 19.2641 11.25 18.8541V15.8541C11.25 15.4441 11.59 15.1041 12 15.1041C12.41 15.1041 12.75 15.4441 12.75 15.8541V18.8541C12.75 19.2641 12.41 19.6041 12 19.6041Z" fill="#EFF6FF"/>
</svg>
