<svg width="10" height="10" viewBox="0 0 10 10" fill="none" xmlns="http://www.w3.org/2000/svg">
<path d="M5.00016 0.833344C2.70433 0.833344 0.833496 2.70418 0.833496 5.00001C0.833496 7.29584 2.70433 9.16668 5.00016 9.16668C7.296 9.16668 9.16683 7.29584 9.16683 5.00001C9.16683 2.70418 7.296 0.833344 5.00016 0.833344ZM4.68766 3.33334C4.68766 3.16251 4.82933 3.02084 5.00016 3.02084C5.171 3.02084 5.31266 3.16251 5.31266 3.33334V5.41668C5.31266 5.58751 5.171 5.72918 5.00016 5.72918C4.82933 5.72918 4.68766 5.58751 4.68766 5.41668V3.33334ZM5.3835 6.82501C5.36266 6.87918 5.3335 6.92084 5.296 6.96251C5.25433 7.00001 5.2085 7.02918 5.1585 7.05001C5.1085 7.07084 5.05433 7.08334 5.00016 7.08334C4.946 7.08334 4.89183 7.07084 4.84183 7.05001C4.79183 7.02918 4.746 7.00001 4.70433 6.96251C4.66683 6.92084 4.63766 6.87918 4.61683 6.82501C4.596 6.77501 4.5835 6.72084 4.5835 6.66668C4.5835 6.61251 4.596 6.55834 4.61683 6.50834C4.63766 6.45834 4.66683 6.41251 4.70433 6.37084C4.746 6.33334 4.79183 6.30418 4.84183 6.28334C4.94183 6.24168 5.0585 6.24168 5.1585 6.28334C5.2085 6.30418 5.25433 6.33334 5.296 6.37084C5.3335 6.41251 5.36266 6.45834 5.3835 6.50834C5.40433 6.55834 5.41683 6.61251 5.41683 6.66668C5.41683 6.72084 5.40433 6.77501 5.3835 6.82501Z" fill="#1D4ED8"/>
</svg>
