<svg width="24" height="25" viewBox="0 0 24 25" fill="none" xmlns="http://www.w3.org/2000/svg">
<path d="M15 23.6041H9C3.57 23.6041 1.25 21.2841 1.25 15.8541V9.85413C1.25 4.42413 3.57 2.10413 9 2.10413H15C20.43 2.10413 22.75 4.42413 22.75 9.85413V15.8541C22.75 21.2841 20.43 23.6041 15 23.6041ZM9 3.60413C4.39 3.60413 2.75 5.24413 2.75 9.85413V15.8541C2.75 20.4641 4.39 22.1041 9 22.1041H15C19.61 22.1041 21.25 20.4641 21.25 15.8541V9.85413C21.25 5.24413 19.61 3.60413 15 3.60413H9Z" fill="#EFF6FF"/>
<path d="M8.80999 19.1041C8.73999 19.1041 8.65999 19.1041 8.58999 19.0841L7.39999 18.9241C6.67999 18.8241 6.04999 18.2041 5.93999 17.4641L5.76999 16.2541C5.69999 15.7741 5.89999 15.1641 6.24999 14.8041L8.52999 12.5241C8.18999 10.9041 8.67999 9.22413 9.86999 8.04413C11.78 6.13413 14.9 6.13413 16.81 8.04413C17.74 8.97413 18.25 10.2041 18.25 11.5141C18.25 12.8241 17.74 14.0641 16.81 14.9841C15.62 16.1641 13.94 16.6541 12.33 16.3141L10.04 18.5941C9.74999 18.9041 9.25999 19.1041 8.80999 19.1041ZM13.34 8.10413C12.47 8.10413 11.59 8.43413 10.93 9.10413C10.03 10.0041 9.70999 11.3141 10.08 12.5341C10.16 12.8041 10.09 13.0841 9.88999 13.2841L7.30999 15.8641C7.28999 15.8941 7.24999 16.0041 7.24999 16.0441L7.41999 17.2441C7.42999 17.3041 7.53999 17.4141 7.59999 17.4241L8.79999 17.5941C8.84999 17.5841 8.94999 17.5641 8.97999 17.5341L11.57 14.9441C11.77 14.7441 12.06 14.6841 12.32 14.7641C13.53 15.1441 14.84 14.8241 15.74 13.9241C16.38 13.2841 16.74 12.4241 16.74 11.5141C16.74 10.6041 16.39 9.74413 15.74 9.10413C15.09 8.44413 14.21 8.10413 13.34 8.10413Z" fill="#EFF6FF"/>
<path d="M10.45 17.8841C10.26 17.8841 10.07 17.8141 9.92003 17.6641L9.06003 16.8041C8.77003 16.5141 8.77003 16.0341 9.06003 15.7441C9.35003 15.4541 9.83003 15.4541 10.12 15.7441L10.98 16.6041C11.27 16.8941 11.27 17.3741 10.98 17.6641C10.84 17.8141 10.65 17.8841 10.45 17.8841Z" fill="#EFF6FF"/>
<path d="M13.38 12.6541C13.24 12.6541 13.11 12.6341 12.99 12.5841C12.87 12.5341 12.76 12.4541 12.67 12.3641C12.48 12.1741 12.37 11.9241 12.37 11.6541C12.37 11.3941 12.48 11.1341 12.67 10.9541C12.9 10.7141 13.25 10.6041 13.57 10.6741C13.63 10.6941 13.7 10.7041 13.76 10.7341C13.82 10.7641 13.88 10.7941 13.93 10.8241C13.98 10.8641 14.04 10.9041 14.08 10.9541C14.27 11.1341 14.38 11.3941 14.38 11.6541C14.38 11.7941 14.35 11.9141 14.3 12.0441C14.25 12.1641 14.18 12.2741 14.08 12.3641C13.89 12.5541 13.64 12.6541 13.38 12.6541Z" fill="#EFF6FF"/>
</svg>
