<svg width="222" height="122" viewBox="0 0 222 122" fill="none" xmlns="http://www.w3.org/2000/svg">
<g clip-path="url(#clip0_256_3132)">
<path d="M0 12.8C0 8.31958 0 6.07937 0.871948 4.36808C1.63893 2.86278 2.86278 1.63893 4.36808 0.871948C6.07937 0 8.31958 0 12.8 0H208.7C213.18 0 215.421 0 217.132 0.871948C218.637 1.63893 219.861 2.86278 220.628 4.36808C221.5 6.07937 221.5 8.31958 221.5 12.8V109.2C221.5 113.68 221.5 115.921 220.628 117.632C219.861 119.137 218.637 120.361 217.132 121.128C215.421 122 213.18 122 208.7 122H12.8C8.31958 122 6.07937 122 4.36808 121.128C2.86278 120.361 1.63893 119.137 0.871948 117.632C0 115.921 0 113.68 0 109.2V12.8Z" fill="#F1F5F9"/>
<g opacity="0.09">
<line x1="-48" y1="88.8646" x2="290.07" y2="88.8646" stroke="#222020" stroke-width="0.28196"/>
<line x1="-48" y1="16.6828" x2="290.07" y2="16.6828" stroke="#222020" stroke-width="0.28196"/>
<line x1="-48" y1="52.7734" x2="290.07" y2="52.7734" stroke="#222020" stroke-width="0.28196"/>
<line x1="-48" y1="70.819" x2="290.07" y2="70.819" stroke="#222020" stroke-width="0.28196"/>
<line x1="-48" y1="34.7279" x2="290.07" y2="34.7279" stroke="#222020" stroke-width="0.28196"/>
<line x1="-48" y1="106.91" x2="290.07" y2="106.91" stroke="#222020" stroke-width="0.28196"/>
<line x1="106.938" y1="-61.8432" x2="106.938" y2="199.252" stroke="#222020" stroke-width="0.28196"/>
<line x1="34.7552" y1="-61.8432" x2="34.7552" y2="199.252" stroke="#222020" stroke-width="0.28196"/>
<line x1="179.119" y1="-61.8432" x2="179.119" y2="199.252" stroke="#222020" stroke-width="0.28196"/>
<line x1="143.028" y1="-61.8432" x2="143.028" y2="199.252" stroke="#222020" stroke-width="0.28196"/>
<line x1="70.847" y1="-61.8432" x2="70.847" y2="199.252" stroke="#222020" stroke-width="0.28196"/>
<line x1="215.21" y1="-61.8432" x2="215.21" y2="199.252" stroke="#222020" stroke-width="0.28196"/>
<line x1="124.983" y1="-61.8432" x2="124.983" y2="199.252" stroke="#222020" stroke-width="0.28196"/>
<line x1="52.8009" y1="-61.8432" x2="52.8009" y2="199.252" stroke="#222020" stroke-width="0.28196"/>
<line x1="197.165" y1="-61.8432" x2="197.165" y2="199.252" stroke="#222020" stroke-width="0.28196"/>
<line x1="16.7108" y1="-61.8432" x2="16.7108" y2="199.252" stroke="#222020" stroke-width="0.28196"/>
<line x1="161.075" y1="-61.8432" x2="161.075" y2="199.252" stroke="#222020" stroke-width="0.28196"/>
<line x1="88.8917" y1="-61.8432" x2="88.8917" y2="199.252" stroke="#222020" stroke-width="0.28196"/>
</g>
<g opacity="0.5">
<rect x="215.326" y="-1.17072" width="17.9429" height="17.6866" fill="#D9AB52" fill-opacity="0.25"/>
<rect x="70.7573" y="52.9032" width="17.9429" height="17.6866" fill="#D9AB52" fill-opacity="0.15"/>
<rect x="197.126" y="16.7723" width="17.9429" height="17.6866" fill="#D9AB52" fill-opacity="0.25"/>
<rect x="52.7812" y="-1.17072" width="17.9429" height="17.6866" fill="#D9AB52" fill-opacity="0.15"/>
<rect x="197.126" y="-1.17072" width="17.9429" height="17.6866" fill="#D9AB52" fill-opacity="0.25"/>
<rect x="52.7812" y="52.9032" width="17.9429" height="17.6866" fill="#D9AB52" fill-opacity="0.15"/>
<rect x="-1.27124" y="107" width="17.9429" height="17.9429" fill="#D9AB52" fill-opacity="0.2"/>
<rect x="-1.271" y="16.516" width="17.9429" height="18.1993" fill="#D9AB52" fill-opacity="0.2"/>
<rect x="215.326" y="107" width="17.9429" height="17.9429" fill="#D9AB52" fill-opacity="0.15"/>
</g>
<path d="M107.073 100.964L81.5847 159.425C79.5722 164.034 84.5688 168.576 89.168 166.33L123.564 149.522L109.59 98.3009C108.498 98.858 107.596 99.77 107.073 100.964Z" fill="#4169DE"/>
<path d="M160.711 121.848L114.75 98.3067C113.06 97.4436 111.142 97.511 109.583 98.3067L123.558 149.527L160.616 131.421C164.641 129.45 164.698 123.893 160.711 121.848Z" fill="#4169DE"/>
<path d="M282.599 160.166L260.126 114.197L241.402 151.535L275.205 167.321C279.905 169.519 284.838 164.751 282.599 160.166Z" fill="#122558"/>
<path d="M260.126 114.197L196.028 130.344L241.402 151.535L260.126 114.197Z" fill="#182D69"/>
<path d="M260.126 114.197C259.603 113.126 258.726 112.25 257.634 111.712L216.387 91.3102L196.022 130.344L260.126 114.197Z" fill="#1D3578"/>
<path d="M177.253 71.956C176.124 71.3929 175.272 70.5115 174.761 69.4709L196.016 130.344L216.381 91.3107L177.253 71.956Z" fill="#223B85"/>
<path d="M174.767 69.4709L196.022 130.344L154.251 110.837L174.767 69.4709Z" fill="#25408F"/>
<path d="M116.851 93.3673C115.653 92.8042 114.757 91.8799 114.233 90.7904L174.773 69.4709L154.257 110.837L116.851 93.3673Z" fill="#29469A"/>
<path d="M114.233 90.7904C113.564 89.4009 113.514 87.7417 114.233 86.2421L131.526 50.2015L174.773 69.4644L114.233 90.7904Z" fill="#2E4EAB"/>
<path d="M149.891 11.9206L174.767 69.4709L131.52 50.2076L149.891 11.9206Z" fill="#3253B3"/>
<path d="M174.767 64.8551C174.105 66.214 174.073 67.7075 174.572 69.0174L174.767 69.4709C174.698 69.324 174.628 69.1704 174.572 69.0174L149.891 11.9206L191.114 31.4344L174.767 64.8551Z" fill="#365AC0"/>
<path d="M149.891 11.9206L206.539 -0.119316L191.107 31.4284L149.891 11.9206Z" fill="#395EC8"/>
<path d="M149.891 11.9206L206.539 -0.119316L165.253 -20.1039L149.891 11.9206Z" fill="#3D63D3"/>
<path d="M206.45 -4.91189L186.06 -42.9785C183.94 -46.9326 178.073 -46.8102 176.13 -42.7703L165.253 -20.1104L206.539 -0.125259C207.29 -1.64327 207.252 -3.41224 206.45 -4.91189Z" fill="#4068DC"/>
<path d="M17.882 54V44.438H19.814V48.47L21.018 48.442L22.922 44.438H24.938L22.684 49.17L25.092 54H23.02L21.032 50.178L19.814 50.206V54H17.882ZM25.9595 54V46.972H27.8215V47.42C27.9708 47.3267 28.1528 47.238 28.3675 47.154C28.5821 47.0607 28.8061 46.9813 29.0395 46.916C29.2821 46.8507 29.5155 46.818 29.7395 46.818C30.2248 46.818 30.6261 46.8833 30.9435 47.014C31.2701 47.1353 31.5268 47.336 31.7135 47.616C31.9001 47.896 32.0355 48.2647 32.1195 48.722C32.2035 49.17 32.2455 49.716 32.2455 50.36V54H30.3695V50.458C30.3695 49.9727 30.3415 49.5853 30.2855 49.296C30.2295 48.9973 30.1221 48.7827 29.9635 48.652C29.8048 48.5213 29.5715 48.456 29.2635 48.456C29.0955 48.456 28.9181 48.4747 28.7315 48.512C28.5541 48.54 28.3815 48.582 28.2135 48.638C28.0548 48.694 27.9241 48.75 27.8215 48.806V54H25.9595ZM36.7217 54.154C35.9284 54.154 35.2891 54.0233 34.8037 53.762C34.3277 53.5007 33.9824 53.0993 33.7677 52.558C33.5531 52.0073 33.4457 51.298 33.4457 50.43C33.4457 49.59 33.5577 48.9087 33.7817 48.386C34.0057 47.854 34.3604 47.462 34.8457 47.21C35.3311 46.9487 35.9564 46.818 36.7217 46.818C37.4964 46.818 38.1217 46.9487 38.5977 47.21C39.0831 47.462 39.4377 47.854 39.6617 48.386C39.8951 48.9087 40.0117 49.59 40.0117 50.43C40.0117 51.298 39.9044 52.0073 39.6897 52.558C39.4751 53.0993 39.1251 53.5007 38.6397 53.762C38.1637 54.0233 37.5244 54.154 36.7217 54.154ZM36.7217 52.614C37.1137 52.614 37.4077 52.544 37.6037 52.404C37.7997 52.2547 37.9304 52.0213 37.9957 51.704C38.0704 51.3773 38.1077 50.9527 38.1077 50.43C38.1077 49.9167 38.0657 49.5107 37.9817 49.212C37.8977 48.904 37.7577 48.6847 37.5617 48.554C37.3657 48.4233 37.0857 48.358 36.7217 48.358C36.3671 48.358 36.0871 48.4233 35.8817 48.554C35.6857 48.6847 35.5457 48.904 35.4617 49.212C35.3777 49.5107 35.3357 49.9167 35.3357 50.43C35.3357 50.9527 35.3684 51.3773 35.4337 51.704C35.5084 52.0213 35.6437 52.2547 35.8397 52.404C36.0357 52.544 36.3297 52.614 36.7217 52.614ZM42.0996 54L40.7556 46.972H42.7436L43.6536 52.418H43.8636L44.9976 47.126H46.7896L47.9656 52.418H48.1756L49.0856 46.972H50.9476L49.6456 54H46.8316L45.8376 49.478L44.8436 54H42.0996ZM52.1014 54V44.102H53.9634V54H52.1014ZM58.4011 54.154C57.6264 54.154 57.0104 54.0233 56.5531 53.762C56.1051 53.5007 55.7831 53.104 55.5871 52.572C55.3911 52.04 55.2931 51.3727 55.2931 50.57C55.2931 49.702 55.4144 48.9927 55.6571 48.442C55.9091 47.8913 56.2731 47.4853 56.7491 47.224C57.2251 46.9533 57.8131 46.818 58.5131 46.818C59.5491 46.818 60.3284 47.0793 60.8511 47.602C61.3831 48.1247 61.6491 48.9507 61.6491 50.08L61.5651 51.116H57.1691C57.1784 51.6387 57.2857 52.0307 57.4911 52.292C57.6964 52.5533 58.0511 52.684 58.5551 52.684C58.8444 52.684 59.1617 52.6793 59.5071 52.67C59.8524 52.6513 60.1931 52.6327 60.5291 52.614C60.8744 52.5953 61.1684 52.5767 61.4111 52.558L61.4531 53.86C61.2197 53.8973 60.9257 53.9393 60.5711 53.986C60.2164 54.0327 59.8477 54.07 59.4651 54.098C59.0917 54.1353 58.7371 54.154 58.4011 54.154ZM57.1691 49.926H59.7871C59.7871 49.2913 59.6844 48.848 59.4791 48.596C59.2831 48.344 58.9611 48.218 58.5131 48.218C58.2144 48.218 57.9671 48.274 57.7711 48.386C57.5751 48.498 57.4257 48.68 57.3231 48.932C57.2204 49.184 57.1691 49.5153 57.1691 49.926ZM65.2532 54.154C64.9172 54.154 64.6092 54.112 64.3292 54.028C64.0492 53.9533 63.8019 53.832 63.5872 53.664C63.3819 53.4867 63.2045 53.258 63.0552 52.978C62.9152 52.698 62.8079 52.3573 62.7332 51.956C62.6585 51.5453 62.6212 51.0693 62.6212 50.528C62.6212 49.7253 62.7192 49.0487 62.9152 48.498C63.1205 47.9473 63.4425 47.532 63.8812 47.252C64.3199 46.9627 64.9032 46.818 65.6312 46.818C65.7712 46.818 65.9345 46.8273 66.1212 46.846C66.3079 46.8553 66.4899 46.874 66.6672 46.902C66.8445 46.9207 66.9892 46.9393 67.1012 46.958V44.102H68.9772V54H67.1292L67.1152 53.594C66.9845 53.6687 66.8119 53.7527 66.5972 53.846C66.3919 53.93 66.1725 54 65.9392 54.056C65.7059 54.1213 65.4772 54.154 65.2532 54.154ZM65.7292 52.586C65.8972 52.586 66.0652 52.5673 66.2332 52.53C66.4105 52.4927 66.5739 52.4507 66.7232 52.404C66.8819 52.348 67.0079 52.2967 67.1012 52.25V48.484C67.0172 48.4653 66.9052 48.4513 66.7652 48.442C66.6252 48.4233 66.4805 48.4093 66.3312 48.4C66.1819 48.3813 66.0465 48.372 65.9252 48.372C65.5612 48.372 65.2765 48.456 65.0712 48.624C64.8752 48.792 64.7352 49.0393 64.6512 49.366C64.5672 49.6833 64.5252 50.0707 64.5252 50.528C64.5252 50.9293 64.5532 51.2653 64.6092 51.536C64.6652 51.7973 64.7445 52.0073 64.8472 52.166C64.9592 52.3153 65.0899 52.4227 65.2392 52.488C65.3885 52.5533 65.5519 52.586 65.7292 52.586ZM73.6101 57.206C72.8634 57.206 72.2381 57.15 71.7341 57.038C71.2394 56.926 70.8661 56.7207 70.6141 56.422C70.3621 56.1327 70.2361 55.7127 70.2361 55.162C70.2361 54.9193 70.2688 54.7 70.3341 54.504C70.4088 54.3173 70.5208 54.14 70.6701 53.972C70.8288 53.804 71.0248 53.6313 71.2581 53.454C71.1274 53.3607 71.0201 53.2253 70.9361 53.048C70.8614 52.8613 70.8241 52.6607 70.8241 52.446C70.8241 52.3713 70.8568 52.2733 70.9221 52.152C70.9874 52.0213 71.0668 51.886 71.1601 51.746C71.2534 51.606 71.3421 51.48 71.4261 51.368C71.2394 51.284 71.0621 51.1627 70.8941 51.004C70.7261 50.836 70.5861 50.612 70.4741 50.332C70.3714 50.052 70.3201 49.6927 70.3201 49.254C70.3201 48.6567 70.4321 48.1807 70.6561 47.826C70.8894 47.4713 71.2254 47.2147 71.6641 47.056C72.1028 46.8973 72.6348 46.818 73.2601 46.818C73.5028 46.818 73.7641 46.8367 74.0441 46.874C74.3241 46.9113 74.5481 46.9487 74.7161 46.986L76.9981 46.944V48.204L75.9341 48.19C76.0181 48.302 76.0928 48.4467 76.1581 48.624C76.2328 48.792 76.2701 49.002 76.2701 49.254C76.2701 49.898 76.1581 50.3973 75.9341 50.752C75.7194 51.1067 75.3928 51.354 74.9541 51.494C74.5154 51.6247 73.9601 51.69 73.2881 51.69C73.2134 51.69 73.1108 51.6853 72.9801 51.676C72.8494 51.6573 72.7421 51.6433 72.6581 51.634C72.6208 51.7273 72.5834 51.8347 72.5461 51.956C72.5088 52.068 72.4901 52.1473 72.4901 52.194C72.4901 52.2967 72.5088 52.376 72.5461 52.432C72.5928 52.488 72.6721 52.5347 72.7841 52.572C72.9054 52.6 73.0781 52.6187 73.3021 52.628C73.5354 52.6373 73.8434 52.642 74.2261 52.642C74.8888 52.642 75.4161 52.7027 75.8081 52.824C76.2094 52.9453 76.4941 53.16 76.6621 53.468C76.8301 53.776 76.9141 54.21 76.9141 54.77C76.9141 55.6007 76.6201 56.212 76.0321 56.604C75.4534 57.0053 74.6461 57.206 73.6101 57.206ZM73.5121 55.82C74.0908 55.82 74.5061 55.75 74.7581 55.61C75.0194 55.4793 75.1501 55.26 75.1501 54.952C75.1501 54.7093 75.1034 54.532 75.0101 54.42C74.9261 54.308 74.7814 54.2333 74.5761 54.196C74.3708 54.168 74.0908 54.154 73.7361 54.154C73.6428 54.154 73.5308 54.1493 73.4001 54.14C73.2694 54.14 73.1341 54.1353 72.9941 54.126C72.8634 54.126 72.7421 54.1213 72.6301 54.112C72.5274 54.1027 72.4528 54.098 72.4061 54.098C72.2754 54.1913 72.1681 54.28 72.0841 54.364C72.0094 54.448 71.9534 54.532 71.9161 54.616C71.8881 54.7093 71.8741 54.8213 71.8741 54.952C71.8741 55.1667 71.9254 55.3347 72.0281 55.456C72.1308 55.5867 72.2988 55.68 72.5321 55.736C72.7748 55.792 73.1014 55.82 73.5121 55.82ZM73.2741 50.374C73.7034 50.374 74.0068 50.29 74.1841 50.122C74.3708 49.9447 74.4641 49.6553 74.4641 49.254C74.4641 48.8527 74.3708 48.5633 74.1841 48.386C74.0068 48.2087 73.7034 48.12 73.2741 48.12C72.8634 48.12 72.5648 48.2087 72.3781 48.386C72.2008 48.5633 72.1121 48.8527 72.1121 49.254C72.1121 49.6553 72.2008 49.9447 72.3781 50.122C72.5648 50.29 72.8634 50.374 73.2741 50.374ZM80.7136 54.154C79.9389 54.154 79.3229 54.0233 78.8656 53.762C78.4176 53.5007 78.0956 53.104 77.8996 52.572C77.7036 52.04 77.6056 51.3727 77.6056 50.57C77.6056 49.702 77.7269 48.9927 77.9696 48.442C78.2216 47.8913 78.5856 47.4853 79.0616 47.224C79.5376 46.9533 80.1256 46.818 80.8256 46.818C81.8616 46.818 82.6409 47.0793 83.1636 47.602C83.6956 48.1247 83.9616 48.9507 83.9616 50.08L83.8776 51.116H79.4816C79.4909 51.6387 79.5982 52.0307 79.8036 52.292C80.0089 52.5533 80.3636 52.684 80.8676 52.684C81.1569 52.684 81.4742 52.6793 81.8196 52.67C82.1649 52.6513 82.5056 52.6327 82.8416 52.614C83.1869 52.5953 83.4809 52.5767 83.7236 52.558L83.7656 53.86C83.5322 53.8973 83.2382 53.9393 82.8836 53.986C82.5289 54.0327 82.1602 54.07 81.7776 54.098C81.4042 54.1353 81.0496 54.154 80.7136 54.154ZM79.4816 49.926H82.0996C82.0996 49.2913 81.9969 48.848 81.7916 48.596C81.5956 48.344 81.2736 48.218 80.8256 48.218C80.5269 48.218 80.2796 48.274 80.0836 48.386C79.8876 48.498 79.7382 48.68 79.6356 48.932C79.5329 49.184 79.4816 49.5153 79.4816 49.926ZM88.3605 54V44.438H92.1685C92.8032 44.438 93.3492 44.5173 93.8065 44.676C94.2638 44.8347 94.6185 45.0913 94.8705 45.446C95.1318 45.7913 95.2625 46.258 95.2625 46.846C95.2625 47.2473 95.2205 47.588 95.1365 47.868C95.0618 48.1387 94.9405 48.372 94.7725 48.568C94.6138 48.7547 94.4038 48.9273 94.1425 49.086C94.4225 49.1887 94.6652 49.3287 94.8705 49.506C95.0852 49.674 95.2485 49.9027 95.3605 50.192C95.4725 50.472 95.5285 50.8453 95.5285 51.312C95.5285 51.8253 95.4492 52.2547 95.2905 52.6C95.1318 52.9453 94.9032 53.2207 94.6045 53.426C94.3152 53.6313 93.9745 53.7807 93.5825 53.874C93.1905 53.958 92.7612 54 92.2945 54H88.3605ZM90.2925 52.572H92.1545C92.4812 52.572 92.7518 52.5347 92.9665 52.46C93.1905 52.376 93.3585 52.2313 93.4705 52.026C93.5918 51.8207 93.6525 51.536 93.6525 51.172C93.6525 50.892 93.6058 50.6633 93.5125 50.486C93.4192 50.3087 93.2978 50.178 93.1485 50.094C92.9992 50.0007 92.8312 49.9353 92.6445 49.898C92.4672 49.8607 92.2898 49.842 92.1125 49.842H90.2925V52.572ZM90.2925 48.47H92.0985C92.4158 48.47 92.6725 48.4233 92.8685 48.33C93.0645 48.2273 93.2092 48.078 93.3025 47.882C93.3958 47.6767 93.4425 47.42 93.4425 47.112C93.4425 46.6733 93.3258 46.356 93.0925 46.16C92.8685 45.964 92.5138 45.866 92.0285 45.866H90.2925V48.47ZM98.6548 54.154C97.9268 54.154 97.3761 53.972 97.0028 53.608C96.6388 53.2347 96.4568 52.6747 96.4568 51.928C96.4568 51.4053 96.5501 50.9993 96.7368 50.71C96.9234 50.4113 97.1988 50.1967 97.5628 50.066C97.9361 49.926 98.3888 49.842 98.9208 49.814L100.629 49.66V49.24C100.629 48.904 100.545 48.6707 100.377 48.54C100.209 48.4 99.9614 48.33 99.6348 48.33C99.3734 48.33 99.0701 48.3393 98.7248 48.358C98.3888 48.3767 98.0528 48.4 97.7168 48.428C97.3901 48.456 97.1054 48.484 96.8628 48.512L96.8068 47.196C97.0494 47.14 97.3388 47.084 97.6748 47.028C98.0201 46.9627 98.3794 46.9113 98.7528 46.874C99.1261 46.8367 99.4714 46.818 99.7888 46.818C100.386 46.818 100.885 46.8927 101.287 47.042C101.688 47.1913 101.991 47.4387 102.197 47.784C102.402 48.12 102.505 48.5773 102.505 49.156V52.362C102.523 52.4927 102.593 52.5953 102.715 52.67C102.836 52.7353 102.976 52.782 103.135 52.81L103.093 54.098C102.943 54.098 102.794 54.098 102.645 54.098C102.505 54.1073 102.369 54.1073 102.239 54.098C102.108 54.098 101.991 54.0887 101.889 54.07C101.674 54.042 101.487 53.986 101.329 53.902C101.179 53.818 101.058 53.7293 100.965 53.636C100.815 53.7013 100.615 53.776 100.363 53.86C100.111 53.944 99.8354 54.014 99.5368 54.07C99.2474 54.126 98.9534 54.154 98.6548 54.154ZM99.1028 52.768C99.2801 52.768 99.4668 52.7493 99.6628 52.712C99.8588 52.6747 100.041 52.6327 100.209 52.586C100.386 52.53 100.526 52.4787 100.629 52.432V50.822L99.2008 50.948C98.8928 50.976 98.6688 51.0693 98.5288 51.228C98.3981 51.3773 98.3328 51.592 98.3328 51.872C98.3328 52.152 98.3934 52.3713 98.5148 52.53C98.6454 52.6887 98.8414 52.768 99.1028 52.768ZM106.683 54.154C106.375 54.154 106.044 54.1353 105.689 54.098C105.344 54.07 105.017 54.0327 104.709 53.986C104.41 53.9393 104.154 53.8927 103.939 53.846L103.995 52.46C104.238 52.488 104.508 52.5207 104.807 52.558C105.115 52.5953 105.414 52.628 105.703 52.656C106.002 52.6747 106.244 52.684 106.431 52.684C106.711 52.684 106.94 52.6607 107.117 52.614C107.304 52.5673 107.444 52.4927 107.537 52.39C107.63 52.278 107.677 52.1193 107.677 51.914C107.677 51.7553 107.635 51.634 107.551 51.55C107.476 51.466 107.327 51.396 107.103 51.34C106.888 51.2747 106.571 51.2093 106.151 51.144C105.628 51.0693 105.194 50.962 104.849 50.822C104.513 50.682 104.266 50.4767 104.107 50.206C103.948 49.926 103.869 49.548 103.869 49.072C103.869 48.4933 103.995 48.0407 104.247 47.714C104.499 47.3873 104.835 47.1587 105.255 47.028C105.675 46.888 106.132 46.818 106.627 46.818C106.954 46.818 107.29 46.8367 107.635 46.874C107.98 46.902 108.307 46.9393 108.615 46.986C108.923 47.0327 109.18 47.0793 109.385 47.126L109.329 48.54C109.096 48.5027 108.825 48.47 108.517 48.442C108.209 48.4047 107.901 48.3767 107.593 48.358C107.294 48.3393 107.042 48.33 106.837 48.33C106.622 48.33 106.431 48.3533 106.263 48.4C106.095 48.4373 105.964 48.5027 105.871 48.596C105.787 48.6893 105.745 48.8293 105.745 49.016C105.745 49.1467 105.782 49.254 105.857 49.338C105.932 49.422 106.072 49.4967 106.277 49.562C106.492 49.618 106.8 49.674 107.201 49.73C107.78 49.814 108.242 49.9307 108.587 50.08C108.932 50.2293 109.18 50.444 109.329 50.724C109.488 51.004 109.567 51.382 109.567 51.858C109.567 52.418 109.455 52.866 109.231 53.202C109.007 53.538 108.68 53.7807 108.251 53.93C107.822 54.0793 107.299 54.154 106.683 54.154ZM113.635 54.154C112.861 54.154 112.245 54.0233 111.787 53.762C111.339 53.5007 111.017 53.104 110.821 52.572C110.625 52.04 110.527 51.3727 110.527 50.57C110.527 49.702 110.649 48.9927 110.891 48.442C111.143 47.8913 111.507 47.4853 111.983 47.224C112.459 46.9533 113.047 46.818 113.747 46.818C114.783 46.818 115.563 47.0793 116.085 47.602C116.617 48.1247 116.883 48.9507 116.883 50.08L116.799 51.116H112.403C112.413 51.6387 112.52 52.0307 112.725 52.292C112.931 52.5533 113.285 52.684 113.789 52.684C114.079 52.684 114.396 52.6793 114.741 52.67C115.087 52.6513 115.427 52.6327 115.763 52.614C116.109 52.5953 116.403 52.5767 116.645 52.558L116.687 53.86C116.454 53.8973 116.16 53.9393 115.805 53.986C115.451 54.0327 115.082 54.07 114.699 54.098C114.326 54.1353 113.971 54.154 113.635 54.154ZM112.403 49.926H115.021C115.021 49.2913 114.919 48.848 114.713 48.596C114.517 48.344 114.195 48.218 113.747 48.218C113.449 48.218 113.201 48.274 113.005 48.386C112.809 48.498 112.66 48.68 112.557 48.932C112.455 49.184 112.403 49.5153 112.403 49.926Z" fill="#475569"/>
<path d="M17.972 71V62.72H19.808L22.868 69.932H23.096V62.72H24.152V71H22.352L19.256 63.776H19.028V71H17.972ZM28.0742 71.12C27.4662 71.12 26.9862 71.004 26.6342 70.772C26.2822 70.54 26.0262 70.196 25.8662 69.74C25.7142 69.284 25.6382 68.716 25.6382 68.036C25.6382 67.284 25.7422 66.676 25.9502 66.212C26.1582 65.748 26.4502 65.412 26.8262 65.204C27.2102 64.988 27.6662 64.88 28.1942 64.88C29.0102 64.88 29.6222 65.104 30.0302 65.552C30.4462 65.992 30.6542 66.7 30.6542 67.676L30.6062 68.42H26.6822C26.6902 69.012 26.8022 69.464 27.0182 69.776C27.2342 70.08 27.6262 70.232 28.1942 70.232C28.4182 70.232 28.6662 70.228 28.9382 70.22C29.2102 70.204 29.4782 70.188 29.7422 70.172C30.0142 70.156 30.2422 70.14 30.4262 70.124L30.4502 70.916C30.2582 70.948 30.0222 70.98 29.7422 71.012C29.4622 71.044 29.1742 71.068 28.8782 71.084C28.5902 71.108 28.3222 71.12 28.0742 71.12ZM26.6822 67.616H29.6222C29.6222 66.912 29.5102 66.42 29.2862 66.14C29.0622 65.852 28.6982 65.708 28.1942 65.708C27.8662 65.708 27.5902 65.772 27.3662 65.9C27.1502 66.028 26.9822 66.232 26.8622 66.512C26.7422 66.792 26.6822 67.16 26.6822 67.616ZM32.8494 71L31.4694 65H32.5134L33.6294 70.124H33.8334L35.1774 65.12H36.2214L37.5774 70.124H37.7814L38.8974 65H39.9294L38.5494 71H36.8814L35.6934 66.464L34.5054 71H32.8494ZM46.6659 71.12C46.0339 71.12 45.5179 71.032 45.1179 70.856C44.7259 70.672 44.4139 70.4 44.1819 70.04C43.9579 69.68 43.8019 69.236 43.7139 68.708C43.6339 68.18 43.5939 67.568 43.5939 66.872C43.5939 66.168 43.6339 65.548 43.7139 65.012C43.8019 64.476 43.9579 64.028 44.1819 63.668C44.4139 63.308 44.7299 63.04 45.1299 62.864C45.5299 62.68 46.0419 62.588 46.6659 62.588C46.9539 62.588 47.2379 62.604 47.5179 62.636C47.8059 62.66 48.0739 62.696 48.3219 62.744C48.5779 62.784 48.7939 62.824 48.9699 62.864L48.9339 63.74C48.7579 63.708 48.5419 63.676 48.2859 63.644C48.0379 63.612 47.7819 63.588 47.5179 63.572C47.2539 63.548 47.0139 63.536 46.7979 63.536C46.3499 63.536 45.9859 63.6 45.7059 63.728C45.4339 63.856 45.2219 64.06 45.0699 64.34C44.9259 64.612 44.8259 64.96 44.7699 65.384C44.7139 65.8 44.6859 66.296 44.6859 66.872C44.6859 67.44 44.7139 67.936 44.7699 68.36C44.8259 68.776 44.9259 69.12 45.0699 69.392C45.2139 69.656 45.4259 69.856 45.7059 69.992C45.9859 70.12 46.3539 70.184 46.8099 70.184C47.1459 70.184 47.5139 70.164 47.9139 70.124C48.3139 70.076 48.6539 70.028 48.9339 69.98L48.9699 70.868C48.7779 70.908 48.5539 70.948 48.2979 70.988C48.0419 71.028 47.7699 71.06 47.4819 71.084C47.2019 71.108 46.9299 71.12 46.6659 71.12ZM52.5003 71.12C51.8283 71.12 51.3003 71.004 50.9163 70.772C50.5403 70.54 50.2763 70.192 50.1243 69.728C49.9723 69.256 49.8963 68.656 49.8963 67.928C49.8963 67.24 49.9803 66.672 50.1483 66.224C50.3163 65.768 50.5923 65.432 50.9763 65.216C51.3603 64.992 51.8683 64.88 52.5003 64.88C53.1403 64.88 53.6523 64.992 54.0363 65.216C54.4203 65.432 54.6963 65.768 54.8643 66.224C55.0323 66.672 55.1163 67.24 55.1163 67.928C55.1163 68.656 55.0363 69.256 54.8763 69.728C54.7243 70.192 54.4603 70.54 54.0843 70.772C53.7083 71.004 53.1803 71.12 52.5003 71.12ZM52.5003 70.244C52.9483 70.244 53.2843 70.168 53.5083 70.016C53.7323 69.856 53.8803 69.604 53.9523 69.26C54.0243 68.916 54.0603 68.472 54.0603 67.928C54.0603 67.392 54.0123 66.964 53.9163 66.644C53.8283 66.324 53.6723 66.096 53.4483 65.96C53.2243 65.824 52.9083 65.756 52.5003 65.756C52.1003 65.756 51.7843 65.824 51.5523 65.96C51.3283 66.096 51.1683 66.324 51.0723 66.644C50.9843 66.964 50.9403 67.392 50.9403 67.928C50.9403 68.472 50.9763 68.916 51.0483 69.26C51.1203 69.604 51.2683 69.856 51.4923 70.016C51.7163 70.168 52.0523 70.244 52.5003 70.244ZM56.5953 71V62.408H57.6153V71H56.5953ZM59.4195 71V62.408H60.4395V71H59.4195ZM64.3438 71.12C63.7358 71.12 63.2558 71.004 62.9038 70.772C62.5518 70.54 62.2958 70.196 62.1357 69.74C61.9838 69.284 61.9078 68.716 61.9078 68.036C61.9078 67.284 62.0118 66.676 62.2198 66.212C62.4278 65.748 62.7198 65.412 63.0958 65.204C63.4798 64.988 63.9358 64.88 64.4638 64.88C65.2798 64.88 65.8918 65.104 66.2998 65.552C66.7158 65.992 66.9238 66.7 66.9238 67.676L66.8758 68.42H62.9518C62.9598 69.012 63.0718 69.464 63.2878 69.776C63.5038 70.08 63.8958 70.232 64.4638 70.232C64.6878 70.232 64.9358 70.228 65.2078 70.22C65.4798 70.204 65.7478 70.188 66.0118 70.172C66.2838 70.156 66.5118 70.14 66.6958 70.124L66.7198 70.916C66.5278 70.948 66.2918 70.98 66.0118 71.012C65.7318 71.044 65.4438 71.068 65.1478 71.084C64.8598 71.108 64.5918 71.12 64.3438 71.12ZM62.9518 67.616H65.8918C65.8918 66.912 65.7798 66.42 65.5558 66.14C65.3318 65.852 64.9678 65.708 64.4638 65.708C64.1358 65.708 63.8598 65.772 63.6358 65.9C63.4198 66.028 63.2518 66.232 63.1318 66.512C63.0118 66.792 62.9518 67.16 62.9518 67.616ZM70.5098 71.12C69.8698 71.12 69.3658 71.016 68.9978 70.808C68.6378 70.592 68.3818 70.248 68.2298 69.776C68.0858 69.304 68.0138 68.68 68.0138 67.904C68.0138 67.176 68.0978 66.588 68.2658 66.14C68.4338 65.692 68.7018 65.372 69.0698 65.18C69.4458 64.98 69.9298 64.88 70.5218 64.88C70.6658 64.88 70.8378 64.892 71.0378 64.916C71.2378 64.932 71.4418 64.956 71.6498 64.988C71.8658 65.012 72.0498 65.036 72.2018 65.06L72.1658 65.9C72.0218 65.884 71.8618 65.868 71.6858 65.852C71.5098 65.836 71.3338 65.824 71.1578 65.816C70.9898 65.8 70.8498 65.792 70.7378 65.792C70.2978 65.792 69.9538 65.864 69.7058 66.008C69.4658 66.144 69.2978 66.364 69.2018 66.668C69.1058 66.972 69.0578 67.384 69.0578 67.904C69.0578 68.472 69.0978 68.924 69.1778 69.26C69.2658 69.596 69.4298 69.84 69.6698 69.992C69.9098 70.136 70.2658 70.208 70.7378 70.208C70.8498 70.208 70.9938 70.204 71.1698 70.196C71.3458 70.18 71.5218 70.164 71.6978 70.148C71.8818 70.132 72.0458 70.12 72.1898 70.112L72.2138 70.94C72.0538 70.972 71.8658 71 71.6498 71.024C71.4418 71.048 71.2338 71.068 71.0258 71.084C70.8258 71.108 70.6538 71.12 70.5098 71.12ZM75.5075 71.132C75.0915 71.132 74.7595 71.068 74.5115 70.94C74.2635 70.812 74.0835 70.592 73.9715 70.28C73.8675 69.96 73.8155 69.512 73.8155 68.936V65.876H72.9875V65H73.8155V63.2H74.8355V65H76.6715V65.876H74.8355V68.648C74.8355 69.056 74.8515 69.376 74.8835 69.608C74.9235 69.832 74.9995 69.992 75.1115 70.088C75.2315 70.176 75.4155 70.22 75.6635 70.22C75.7435 70.22 75.8435 70.216 75.9635 70.208C76.0915 70.2 76.2195 70.192 76.3475 70.184C76.4835 70.168 76.5995 70.156 76.6955 70.148L76.7555 71C76.6435 71.016 76.5075 71.032 76.3475 71.048C76.1955 71.072 76.0435 71.092 75.8915 71.108C75.7395 71.124 75.6115 71.132 75.5075 71.132ZM77.7463 71V65H78.7543V71H77.7463ZM77.7463 63.728V62.612H78.7543V63.728H77.7463ZM82.7698 71.12C82.0978 71.12 81.5698 71.004 81.1858 70.772C80.8098 70.54 80.5458 70.192 80.3938 69.728C80.2418 69.256 80.1658 68.656 80.1658 67.928C80.1658 67.24 80.2498 66.672 80.4178 66.224C80.5858 65.768 80.8618 65.432 81.2458 65.216C81.6298 64.992 82.1378 64.88 82.7698 64.88C83.4098 64.88 83.9218 64.992 84.3058 65.216C84.6898 65.432 84.9658 65.768 85.1338 66.224C85.3018 66.672 85.3858 67.24 85.3858 67.928C85.3858 68.656 85.3058 69.256 85.1458 69.728C84.9938 70.192 84.7298 70.54 84.3538 70.772C83.9778 71.004 83.4498 71.12 82.7698 71.12ZM82.7698 70.244C83.2178 70.244 83.5538 70.168 83.7778 70.016C84.0018 69.856 84.1498 69.604 84.2218 69.26C84.2938 68.916 84.3298 68.472 84.3298 67.928C84.3298 67.392 84.2818 66.964 84.1858 66.644C84.0978 66.324 83.9418 66.096 83.7178 65.96C83.4938 65.824 83.1778 65.756 82.7698 65.756C82.3698 65.756 82.0538 65.824 81.8218 65.96C81.5978 66.096 81.4378 66.324 81.3418 66.644C81.2538 66.964 81.2098 67.392 81.2098 67.928C81.2098 68.472 81.2458 68.916 81.3178 69.26C81.3898 69.604 81.5378 69.856 81.7618 70.016C81.9858 70.168 82.3218 70.244 82.7698 70.244ZM86.8048 71V65H87.8128V65.408C87.9488 65.328 88.1168 65.248 88.3168 65.168C88.5248 65.088 88.7408 65.02 88.9648 64.964C89.1968 64.908 89.4168 64.88 89.6248 64.88C90.0408 64.88 90.3808 64.936 90.6448 65.048C90.9168 65.152 91.1248 65.324 91.2688 65.564C91.4208 65.796 91.5248 66.1 91.5808 66.476C91.6448 66.844 91.6768 67.296 91.6768 67.832V71H90.6568V67.868C90.6568 67.364 90.6248 66.96 90.5608 66.656C90.5048 66.352 90.3888 66.132 90.2128 65.996C90.0448 65.86 89.7808 65.792 89.4208 65.792C89.2288 65.792 89.0288 65.816 88.8208 65.864C88.6208 65.904 88.4328 65.956 88.2568 66.02C88.0808 66.084 87.9328 66.148 87.8128 66.212V71H86.8048Z" fill="#94A3B8"/>
</g>
<defs>
<clipPath id="clip0_256_3132">
<path d="M0 12.8C0 8.31958 0 6.07937 0.871948 4.36808C1.63893 2.86278 2.86278 1.63893 4.36808 0.871948C6.07937 0 8.31958 0 12.8 0H208.7C213.18 0 215.421 0 217.132 0.871948C218.637 1.63893 219.861 2.86278 220.628 4.36808C221.5 6.07937 221.5 8.31958 221.5 12.8V109.2C221.5 113.68 221.5 115.921 220.628 117.632C219.861 119.137 218.637 120.361 217.132 121.128C215.421 122 213.18 122 208.7 122H12.8C8.31958 122 6.07937 122 4.36808 121.128C2.86278 120.361 1.63893 119.137 0.871948 117.632C0 115.921 0 113.68 0 109.2V12.8Z" fill="white"/>
</clipPath>
</defs>
</svg>
