<svg width="41" height="43" viewBox="0 0 41 43" fill="none" xmlns="http://www.w3.org/2000/svg">
<path d="M5.41919 29.223L0.400536 40.7344C0.00426137 41.6419 0.988117 42.5362 1.89371 42.0939L8.66641 38.7843L5.91485 28.6988C5.69994 28.8084 5.5223 28.988 5.41919 29.223Z" fill="#4169DE"/>
<path d="M15.9807 33.3353L6.93095 28.6999C6.59803 28.53 6.22039 28.5432 5.91356 28.6999L8.66512 38.7854L15.962 35.2203C16.7546 34.8322 16.7658 33.7378 15.9807 33.3353Z" fill="#4169DE"/>
<path d="M39.9809 40.8802L35.556 31.8288L31.869 39.1808L38.525 42.2891C39.4504 42.7218 40.4219 41.7829 39.9809 40.8802Z" fill="#122558"/>
<path d="M35.556 31.8288L22.9349 35.0082L31.869 39.1808L35.556 31.8288Z" fill="#182D69"/>
<path d="M35.556 31.8288C35.4529 31.6178 35.2802 31.4454 35.0653 31.3393L26.9435 27.3223L22.9335 35.0081L35.556 31.8288Z" fill="#1D3578"/>
<path d="M19.2379 23.5114C19.0156 23.4005 18.8479 23.2269 18.7472 23.022L22.9323 35.0082L26.9423 27.3224L19.2379 23.5114Z" fill="#223B85"/>
<path d="M18.7485 23.022L22.9335 35.0081L14.7087 31.1671L18.7485 23.022Z" fill="#25408F"/>
<path d="M7.34463 27.7273C7.1086 27.6164 6.9322 27.4344 6.8291 27.2199L18.7496 23.022L14.7099 31.1671L7.34463 27.7273Z" fill="#29469A"/>
<path d="M6.8291 27.2199C6.69742 26.9463 6.68754 26.6196 6.82915 26.3243L10.2341 19.2278L18.7497 23.0207L6.8291 27.2199Z" fill="#2E4EAB"/>
<path d="M13.8503 11.6902L18.7485 23.022L10.2329 19.229L13.8503 11.6902Z" fill="#3253B3"/>
<path d="M18.7485 22.1132C18.618 22.3807 18.6118 22.6748 18.71 22.9327L18.7485 23.022C18.7348 22.9931 18.7211 22.9629 18.71 22.9327L13.8503 11.6902L21.9671 15.5325L18.7485 22.1132Z" fill="#365AC0"/>
<path d="M13.8503 11.6902L25.0044 9.31948L21.9659 15.5313L13.8503 11.6902Z" fill="#395EC8"/>
<path d="M13.8503 11.6902L25.0044 9.31948L16.8752 5.38445L13.8503 11.6902Z" fill="#3D63D3"/>
<path d="M24.987 8.37581L20.9721 0.880378C20.5547 0.101788 19.3994 0.125893 19.0168 0.921356L16.8752 5.38318L25.0044 9.31831C25.1522 9.01941 25.1448 8.6711 24.987 8.37581Z" fill="#4068DC"/>
</svg>
