<svg width="24" height="25" viewBox="0 0 24 25" fill="none" xmlns="http://www.w3.org/2000/svg">
<path d="M8 23.174C7.72 23.174 7.42998 23.104 7.16998 22.9641C6.59998 22.6641 6.25 22.064 6.25 21.424V20.0041C3.23 19.6941 1.25 17.474 1.25 14.294V8.29407C1.25 4.85407 3.56 2.54407 7 2.54407H17C20.44 2.54407 22.75 4.85407 22.75 8.29407V14.294C22.75 17.734 20.44 20.044 17 20.044H13.23L8.96997 22.8841C8.67997 23.0741 8.34 23.174 8 23.174ZM7 4.03406C4.42 4.03406 2.75 5.70406 2.75 8.28406V14.2841C2.75 16.8641 4.42 18.5341 7 18.5341C7.41 18.5341 7.75 18.8741 7.75 19.2841V21.4141C7.75 21.5441 7.83 21.6041 7.88 21.6341C7.93001 21.6641 8.03001 21.6941 8.14001 21.6241L12.59 18.6641C12.71 18.5841 12.86 18.5341 13.01 18.5341H17.01C19.59 18.5341 21.26 16.8641 21.26 14.2841V8.28406C21.26 5.70406 19.59 4.03406 17.01 4.03406H7Z" fill="#EFF6FF"/>
<path d="M11.9998 12.9641C11.5898 12.9641 11.2498 12.6241 11.2498 12.2141V12.0042C11.2498 10.8442 12.0998 10.2741 12.4198 10.0541C12.7898 9.80414 12.9098 9.63415 12.9098 9.37415C12.9098 8.87415 12.4998 8.46411 11.9998 8.46411C11.4998 8.46411 11.0898 8.87415 11.0898 9.37415C11.0898 9.78415 10.7498 10.1241 10.3398 10.1241C9.92984 10.1241 9.58984 9.78415 9.58984 9.37415C9.58984 8.04415 10.6698 6.96411 11.9998 6.96411C13.3298 6.96411 14.4098 8.04415 14.4098 9.37415C14.4098 10.5141 13.5698 11.0841 13.2598 11.2941C12.8698 11.5541 12.7498 11.7242 12.7498 12.0042V12.2141C12.7498 12.6341 12.4098 12.9641 11.9998 12.9641Z" fill="#EFF6FF"/>
<path d="M12 15.4541C11.58 15.4541 11.25 15.1141 11.25 14.7041C11.25 14.2941 11.59 13.9541 12 13.9541C12.41 13.9541 12.75 14.2941 12.75 14.7041C12.75 15.1141 12.42 15.4541 12 15.4541Z" fill="#EFF6FF"/>
</svg>
