<svg width="24" height="25" viewBox="0 0 24 25" fill="none" xmlns="http://www.w3.org/2000/svg">
<path d="M13.05 17.1041H11.17C9.84001 17.1041 8.75 15.9841 8.75 14.6041C8.75 14.1941 9.09 13.8541 9.5 13.8541C9.91 13.8541 10.25 14.1941 10.25 14.6041C10.25 15.1541 10.66 15.6041 11.17 15.6041H13.05C13.44 15.6041 13.75 15.2541 13.75 14.8241C13.75 14.2841 13.6 14.2041 13.26 14.0841L10.25 13.0341C9.61 12.8041 8.75 12.3441 8.75 10.8741C8.75 9.62411 9.74001 8.59412 10.95 8.59412H12.83C14.16 8.59412 15.25 9.71412 15.25 11.0941C15.25 11.5041 14.91 11.8441 14.5 11.8441C14.09 11.8441 13.75 11.5041 13.75 11.0941C13.75 10.5441 13.34 10.0941 12.83 10.0941H10.95C10.56 10.0941 10.25 10.4441 10.25 10.8741C10.25 11.4141 10.4 11.4941 10.74 11.6141L13.75 12.6641C14.39 12.8941 15.25 13.3541 15.25 14.8241C15.25 16.0841 14.26 17.1041 13.05 17.1041Z" fill="#EFF6FF"/>
<path d="M12 18.1041C11.59 18.1041 11.25 17.7641 11.25 17.3541V8.35413C11.25 7.94413 11.59 7.60413 12 7.60413C12.41 7.60413 12.75 7.94413 12.75 8.35413V17.3541C12.75 17.7641 12.41 18.1041 12 18.1041Z" fill="#EFF6FF"/>
<path d="M12 23.6041C6.07 23.6041 1.25 18.7841 1.25 12.8541C1.25 6.92413 6.07 2.10413 12 2.10413C12.41 2.10413 12.75 2.44413 12.75 2.85413C12.75 3.26413 12.41 3.60413 12 3.60413C6.9 3.60413 2.75 7.75413 2.75 12.8541C2.75 17.9541 6.9 22.1041 12 22.1041C17.1 22.1041 21.25 17.9541 21.25 12.8541C21.25 12.4441 21.59 12.1041 22 12.1041C22.41 12.1041 22.75 12.4441 22.75 12.8541C22.75 18.7841 17.93 23.6041 12 23.6041Z" fill="#EFF6FF"/>
<path d="M22 7.60413C21.59 7.60413 21.25 7.26413 21.25 6.85413V3.60413H18C17.59 3.60413 17.25 3.26413 17.25 2.85413C17.25 2.44413 17.59 2.10413 18 2.10413H22C22.41 2.10413 22.75 2.44413 22.75 2.85413V6.85413C22.75 7.26413 22.41 7.60413 22 7.60413Z" fill="#EFF6FF"/>
<path d="M16.9999 8.60413C16.8099 8.60413 16.6199 8.53413 16.4699 8.38413C16.1799 8.09413 16.1799 7.61413 16.4699 7.32413L21.4699 2.32413C21.7599 2.03413 22.2399 2.03413 22.5299 2.32413C22.8199 2.61413 22.8199 3.09413 22.5299 3.38413L17.5299 8.38413C17.3799 8.53413 17.1899 8.60413 16.9999 8.60413Z" fill="#EFF6FF"/>
</svg>
