<svg width="20" height="20" viewBox="0 0 20 20" fill="none" xmlns="http://www.w3.org/2000/svg">
<path d="M6.66663 4.79175C6.32496 4.79175 6.04163 4.50841 6.04163 4.16675V1.66675C6.04163 1.32508 6.32496 1.04175 6.66663 1.04175C7.00829 1.04175 7.29163 1.32508 7.29163 1.66675V4.16675C7.29163 4.50841 7.00829 4.79175 6.66663 4.79175Z" fill="#292D32"/>
<path d="M13.3334 4.79175C12.9917 4.79175 12.7084 4.50841 12.7084 4.16675V1.66675C12.7084 1.32508 12.9917 1.04175 13.3334 1.04175C13.675 1.04175 13.9584 1.32508 13.9584 1.66675V4.16675C13.9584 4.50841 13.675 4.79175 13.3334 4.79175Z" fill="#292D32"/>
<path d="M13.3333 18.9584H6.66667C3.625 18.9584 1.875 17.2084 1.875 14.1667V7.08342C1.875 4.04175 3.625 2.29175 6.66667 2.29175H13.3333C16.375 2.29175 18.125 4.04175 18.125 7.08342V14.1667C18.125 17.2084 16.375 18.9584 13.3333 18.9584ZM6.66667 3.54175C4.28333 3.54175 3.125 4.70008 3.125 7.08342V14.1667C3.125 16.5501 4.28333 17.7084 6.66667 17.7084H13.3333C15.7167 17.7084 16.875 16.5501 16.875 14.1667V7.08342C16.875 4.70008 15.7167 3.54175 13.3333 3.54175H6.66667Z" fill="#292D32"/>
<path d="M13.3333 9.79175H6.66663C6.32496 9.79175 6.04163 9.50841 6.04163 9.16675C6.04163 8.82508 6.32496 8.54175 6.66663 8.54175H13.3333C13.675 8.54175 13.9583 8.82508 13.9583 9.16675C13.9583 9.50841 13.675 9.79175 13.3333 9.79175Z" fill="#292D32"/>
<path d="M9.99996 13.9583H6.66663C6.32496 13.9583 6.04163 13.6749 6.04163 13.3333C6.04163 12.9916 6.32496 12.7083 6.66663 12.7083H9.99996C10.3416 12.7083 10.625 12.9916 10.625 13.3333C10.625 13.6749 10.3416 13.9583 9.99996 13.9583Z" fill="#292D32"/>
</svg>
