<svg width="24" height="25" viewBox="0 0 24 25" fill="none" xmlns="http://www.w3.org/2000/svg">
<path d="M9.15957 12.4741C9.12957 12.4741 9.10957 12.4741 9.07957 12.4741C9.02957 12.4641 8.95957 12.4641 8.89957 12.4741C5.99957 12.3841 3.80957 10.1041 3.80957 7.2941C3.80957 4.4341 6.13957 2.1041 8.99957 2.1041C11.8596 2.1041 14.1896 4.4341 14.1896 7.2941C14.1796 10.1041 11.9796 12.3841 9.18957 12.4741C9.17957 12.4741 9.16957 12.4741 9.15957 12.4741ZM8.99957 3.6041C6.96957 3.6041 5.30957 5.2641 5.30957 7.2941C5.30957 9.2941 6.86957 10.9041 8.85957 10.9741C8.91957 10.9641 9.04957 10.9641 9.17957 10.9741C11.1396 10.8841 12.6796 9.2741 12.6896 7.2941C12.6896 5.2641 11.0296 3.6041 8.99957 3.6041Z" fill="#EFF6FF"/>
<path d="M16.5396 12.6041C16.5096 12.6041 16.4796 12.6041 16.4496 12.5941C16.0396 12.6341 15.6196 12.3441 15.5796 11.9341C15.5396 11.5241 15.7896 11.1541 16.1996 11.1041C16.3196 11.0941 16.4496 11.0941 16.5596 11.0941C18.0196 11.0141 19.1596 9.8141 19.1596 8.3441C19.1596 6.8241 17.9296 5.5941 16.4096 5.5941C15.9996 5.6041 15.6596 5.2641 15.6596 4.8541C15.6596 4.4441 15.9996 4.1041 16.4096 4.1041C18.7496 4.1041 20.6596 6.0141 20.6596 8.3541C20.6596 10.6541 18.8596 12.5141 16.5696 12.6041C16.5596 12.6041 16.5496 12.6041 16.5396 12.6041Z" fill="#EFF6FF"/>
<path d="M9.16961 23.4041C7.20961 23.4041 5.23961 22.9041 3.74961 21.9041C2.35961 20.9841 1.59961 19.7241 1.59961 18.3541C1.59961 16.9841 2.35961 15.7141 3.74961 14.7841C6.74961 12.7941 11.6096 12.7941 14.5896 14.7841C15.9696 15.7041 16.7396 16.9641 16.7396 18.3341C16.7396 19.7041 15.9796 20.9741 14.5896 21.9041C13.0896 22.9041 11.1296 23.4041 9.16961 23.4041ZM4.57961 16.0441C3.61961 16.6841 3.09961 17.5041 3.09961 18.3641C3.09961 19.2141 3.62961 20.0341 4.57961 20.6641C7.06961 22.3341 11.2696 22.3341 13.7596 20.6641C14.7196 20.0241 15.2396 19.2041 15.2396 18.3441C15.2396 17.4941 14.7096 16.6741 13.7596 16.0441C11.2696 14.3841 7.06961 14.3841 4.57961 16.0441Z" fill="#EFF6FF"/>
<path d="M18.3396 21.6041C17.9896 21.6041 17.6796 21.3641 17.6096 21.0041C17.5296 20.5941 17.7896 20.2041 18.1896 20.1141C18.8196 19.9841 19.3996 19.7341 19.8496 19.3841C20.4196 18.9541 20.7296 18.4141 20.7296 17.8441C20.7296 17.2741 20.4196 16.7341 19.8596 16.3141C19.4196 15.9741 18.8696 15.7341 18.2196 15.5841C17.8196 15.4941 17.5596 15.0941 17.6496 14.6841C17.7396 14.2841 18.1396 14.0241 18.5496 14.1141C19.4096 14.3041 20.1596 14.6441 20.7696 15.1141C21.6996 15.8141 22.2296 16.8041 22.2296 17.8441C22.2296 18.8841 21.6896 19.8741 20.7596 20.5841C20.1396 21.0641 19.3596 21.4141 18.4996 21.5841C18.4396 21.6041 18.3896 21.6041 18.3396 21.6041Z" fill="#EFF6FF"/>
</svg>
