<svg width="20" height="20" viewBox="0 0 20 20" fill="none" xmlns="http://www.w3.org/2000/svg">
<path fill-rule="evenodd" clip-rule="evenodd" d="M10.0035 1.66666C7.55848 1.66666 5.5764 3.6572 5.5764 6.11264C5.5764 8.56809 7.55848 10.5586 10.0035 10.5586C12.4485 10.5586 14.4306 8.56809 14.4306 6.11264C14.4306 3.6572 12.4485 1.66666 10.0035 1.66666ZM10.0035 2.87305C11.7851 2.87305 13.2293 4.32347 13.2293 6.11264C13.2293 7.90182 11.7851 9.35223 10.0035 9.35223C8.22192 9.35223 6.77766 7.90182 6.77766 6.11264C6.77766 4.32347 8.22192 2.87305 10.0035 2.87305ZM8.19163 12.3507C7.54353 12.3957 6.88843 12.4882 6.24225 12.6267C4.99506 12.8836 3.9973 13.3969 3.57262 14.2499C3.41244 14.5835 3.33191 14.9407 3.33327 15.3023C3.33279 15.6613 3.41267 16.0189 3.5671 16.3461C3.97487 17.1892 4.85642 17.6664 6.04679 17.9309L6.26002 17.9754C6.88866 18.1172 7.54395 18.2127 8.20364 18.2575C8.25982 18.274 8.39373 18.2893 8.53989 18.2968L8.6601 18.3013C8.72191 18.3027 8.79207 18.3031 8.89659 18.3031C9.84479 18.3552 10.8278 18.34 11.8062 18.2568C12.3276 18.2211 12.8525 18.1529 13.373 18.053L13.7625 17.9721C15.0479 17.7186 16.0104 17.2363 16.4321 16.347C16.7447 15.6868 16.7447 14.9206 16.4322 14.2606C16.0116 13.3735 15.0613 12.8953 13.7527 12.6257C13.2393 12.5161 12.7176 12.435 12.1921 12.3832L11.808 12.3507C10.6049 12.2446 9.39477 12.2446 8.19163 12.3507ZM11.7029 13.5525L11.7135 13.5533C12.3165 13.5958 12.9158 13.6804 13.5071 13.8067C14.4792 14.0069 15.1388 14.3389 15.3475 14.779C15.5046 15.1109 15.5046 15.4965 15.3474 15.8286C15.1524 16.2399 14.5599 16.5576 13.7036 16.7518L13.5162 16.7915C12.9132 16.926 12.3159 17.0127 11.7145 17.0539C10.7815 17.1333 9.85404 17.1476 8.92889 17.0976L8.60089 17.0919C8.50983 17.0873 8.43309 17.0785 8.36198 17.0642C7.79885 17.0217 7.29214 16.9545 6.80014 16.857L6.50637 16.7948C5.53134 16.6037 4.86587 16.2702 4.65011 15.8241C4.57462 15.6641 4.53429 15.4836 4.53453 15.3008C4.53385 15.119 4.57365 14.9425 4.6509 14.7816C4.86069 14.3603 5.56591 13.9975 6.48829 13.8075C7.08386 13.6799 7.68293 13.5953 8.2857 13.5534C9.42994 13.4525 10.5697 13.4525 11.7029 13.5525Z" fill="#142452"/>
</svg>
