<svg width="24" height="25" viewBox="0 0 24 25" fill="none" xmlns="http://www.w3.org/2000/svg">
<path d="M10.54 22.7941C10.31 22.7941 10.09 22.6941 9.94003 22.4941L8.93002 21.1441C8.72002 20.8641 8.44005 20.7041 8.14005 20.6841C7.84004 20.6641 7.54002 20.8041 7.30002 21.0541C5.85002 22.6041 4.75003 22.4741 4.22003 22.2741C3.68003 22.0641 2.77002 21.3741 2.77002 19.1541V7.8941C2.77002 3.4541 4.05002 2.1041 8.24002 2.1041H15.79C19.98 2.1041 21.26 3.4541 21.26 7.8941V12.1541C21.26 12.5641 20.92 12.9041 20.51 12.9041C20.1 12.9041 19.76 12.5641 19.76 12.1541V7.8941C19.76 4.2841 19.13 3.6041 15.79 3.6041H8.24002C4.90002 3.6041 4.27002 4.2841 4.27002 7.8941V19.1541C4.27002 20.2041 4.53002 20.7841 4.77002 20.8741C4.95002 20.9441 5.44004 20.8441 6.20004 20.0341C6.75004 19.4541 7.47003 19.1441 8.22003 19.1841C8.96003 19.2241 9.66004 19.6141 10.13 20.2441L11.15 21.5941C11.4 21.9241 11.33 22.3941 11 22.6441C10.85 22.7541 10.69 22.7941 10.54 22.7941Z" fill="#EFF6FF"/>
<path d="M18.2 23.0041C16.02 23.0041 14.25 21.2341 14.25 19.0541C14.25 16.8741 16.02 15.1041 18.2 15.1041C20.38 15.1041 22.15 16.8741 22.15 19.0541C22.15 21.2341 20.38 23.0041 18.2 23.0041ZM18.2 16.6041C16.85 16.6041 15.75 17.7041 15.75 19.0541C15.75 20.4041 16.85 21.5041 18.2 21.5041C19.55 21.5041 20.65 20.4041 20.65 19.0541C20.65 17.7041 19.55 16.6041 18.2 16.6041Z" fill="#EFF6FF"/>
<path d="M21.9999 23.6041C21.8099 23.6041 21.6199 23.5341 21.4699 23.3841L20.4699 22.3841C20.1799 22.0941 20.1799 21.6141 20.4699 21.3241C20.7599 21.0341 21.2399 21.0341 21.5299 21.3241L22.5299 22.3241C22.8199 22.6141 22.8199 23.0941 22.5299 23.3841C22.3799 23.5341 22.1899 23.6041 21.9999 23.6041Z" fill="#EFF6FF"/>
<path d="M16 8.6041H8C7.59 8.6041 7.25 8.2641 7.25 7.8541C7.25 7.4441 7.59 7.1041 8 7.1041H16C16.41 7.1041 16.75 7.4441 16.75 7.8541C16.75 8.2641 16.41 8.6041 16 8.6041Z" fill="#EFF6FF"/>
<path d="M15 12.6041H9C8.59 12.6041 8.25 12.2641 8.25 11.8541C8.25 11.4441 8.59 11.1041 9 11.1041H15C15.41 11.1041 15.75 11.4441 15.75 11.8541C15.75 12.2641 15.41 12.6041 15 12.6041Z" fill="#EFF6FF"/>
</svg>
