<svg width="24" height="25" viewBox="0 0 24 25" fill="none" xmlns="http://www.w3.org/2000/svg">
<path d="M11.5 21.9582C5.85 21.9582 1.25 17.3582 1.25 11.7082C1.25 6.05816 5.85 1.45816 11.5 1.45816C17.15 1.45816 21.75 6.05816 21.75 11.7082C21.75 17.3582 17.15 21.9582 11.5 21.9582ZM11.5 2.95816C6.67 2.95816 2.75 6.88816 2.75 11.7082C2.75 16.5282 6.67 20.4582 11.5 20.4582C16.33 20.4582 20.25 16.5282 20.25 11.7082C20.25 6.88816 16.33 2.95816 11.5 2.95816Z" fill="#EFF6FF"/>
<path d="M22 22.9582C21.81 22.9582 21.62 22.8882 21.47 22.7382L19.47 20.7382C19.18 20.4482 19.18 19.9682 19.47 19.6782C19.76 19.3882 20.24 19.3882 20.53 19.6782L22.53 21.6782C22.82 21.9682 22.82 22.4482 22.53 22.7382C22.38 22.8882 22.19 22.9582 22 22.9582Z" fill="#EFF6FF"/>
</svg>
