<svg width="24" height="25" viewBox="0 0 24 25" fill="none" xmlns="http://www.w3.org/2000/svg">
<path d="M15.5 16.6041C15.32 16.6041 15.12 16.5941 14.93 16.5841C14.56 16.5641 14.26 16.2641 14.23 15.8941C14.01 13.1041 11.74 10.8441 8.95999 10.6241C8.58999 10.5941 8.28999 10.2941 8.26999 9.92413C8.25999 9.73413 8.25 9.54413 8.25 9.35413C8.25 5.35413 11.5 2.10413 15.5 2.10413C19.5 2.10413 22.75 5.35413 22.75 9.35413C22.75 13.3541 19.5 16.6041 15.5 16.6041ZM9.75 9.21411C12.73 9.73411 15.12 12.1241 15.64 15.1041C18.75 15.0241 21.25 12.4841 21.25 9.35413C21.25 6.18413 18.67 3.60413 15.5 3.60413C12.38 3.60413 9.83 6.10411 9.75 9.21411Z" fill="#EFF6FF"/>
<path d="M8.5 23.6041C4.5 23.6041 1.25 20.3541 1.25 16.3541C1.25 12.3541 4.5 9.10413 8.5 9.10413C8.68 9.10413 8.88001 9.11411 9.07001 9.12411C12.6 9.40411 15.46 12.2641 15.73 15.7741C15.74 15.9741 15.75 16.1641 15.75 16.3541C15.75 20.3541 12.5 23.6041 8.5 23.6041ZM8.5 10.6041C5.33 10.6041 2.75 13.1841 2.75 16.3541C2.75 19.5241 5.33 22.1041 8.5 22.1041C11.67 22.1041 14.25 19.5241 14.25 16.3541C14.25 16.1941 14.24 16.0341 14.23 15.8841C14.01 13.1141 11.75 10.8441 8.95999 10.6241C8.81999 10.6141 8.66 10.6041 8.5 10.6041Z" fill="#EFF6FF"/>
<path d="M3 8.19412C2.77 8.19412 2.54999 8.15412 2.32999 8.06412C1.66999 7.79412 1.25 7.15412 1.25 6.44412V3.85413C1.25 2.89413 2.04 2.10413 3 2.10413H5.59C6.3 2.10413 6.92999 2.52411 7.20999 3.18411C7.47999 3.84411 7.32999 4.59412 6.82999 5.09412L4.23999 7.68411C3.89999 8.01411 3.46 8.19412 3 8.19412ZM3 3.60413C2.86 3.60413 2.75 3.71413 2.75 3.85413V6.44412C2.75 6.59412 2.84999 6.65413 2.89999 6.67413C2.95999 6.69413 3.07001 6.72411 3.17001 6.62411L5.76001 4.03412C5.86001 3.93412 5.84 3.82413 5.81 3.76413C5.78 3.70413 5.71999 3.61414 5.57999 3.61414H3V3.60413Z" fill="#EFF6FF"/>
<path d="M20.9998 23.6041H18.4098C17.6998 23.6041 17.0698 23.1841 16.7898 22.5241C16.5198 21.8641 16.6698 21.1141 17.1698 20.6141L19.7598 18.0241C20.2598 17.5241 21.0098 17.3741 21.6698 17.6441C22.3298 17.9141 22.7498 18.5541 22.7498 19.2641V21.8541C22.7498 22.8141 21.9598 23.6041 20.9998 23.6041ZM20.9898 19.0141C20.9398 19.0141 20.8798 19.0341 20.8198 19.0941L18.2298 21.6841C18.1298 21.7841 18.1498 21.8941 18.1798 21.9541C18.2098 22.0141 18.2698 22.1041 18.4098 22.1041H20.9998C21.1398 22.1041 21.2498 21.9941 21.2498 21.8541V19.2641C21.2498 19.1141 21.1498 19.0541 21.0998 19.0341C21.0698 19.0241 21.0298 19.0141 20.9898 19.0141Z" fill="#EFF6FF"/>
</svg>
