<svg width="24" height="25" viewBox="0 0 24 25" fill="none" xmlns="http://www.w3.org/2000/svg">
<path d="M12.0002 23.6041C11.3302 23.6041 10.6502 23.4341 10.0502 23.0841L4.11016 19.6541C2.91016 18.9541 2.16016 17.6641 2.16016 16.2741V9.43412C2.16016 8.04412 2.91016 6.75411 4.11016 6.05411L10.0502 2.62412C11.2502 1.92412 12.7402 1.92412 13.9502 2.62412L19.8902 6.05411C21.0902 6.75411 21.8402 8.04412 21.8402 9.43412V16.2741C21.8402 17.6641 21.0902 18.9541 19.8902 19.6541L13.9502 23.0841C13.3502 23.4341 12.6702 23.6041 12.0002 23.6041ZM12.0002 3.6041C11.5902 3.6041 11.1702 3.71411 10.8002 3.92411L4.86016 7.3541C4.12016 7.7841 3.66016 8.57412 3.66016 9.43412V16.2741C3.66016 17.1241 4.12016 17.9241 4.86016 18.3541L10.8002 21.7841C11.5402 22.2141 12.4602 22.2141 13.2002 21.7841L19.1402 18.3541C19.8802 17.9241 20.3402 17.1341 20.3402 16.2741V9.43412C20.3402 8.58412 19.8802 7.7841 19.1402 7.3541L13.2002 3.92411C12.8302 3.71411 12.4102 3.6041 12.0002 3.6041Z" fill="#EFF6FF"/>
<path d="M11.9999 12.1042C10.5761 12.1042 9.41992 10.948 9.41992 9.52417C9.41992 8.10032 10.5761 6.94421 11.9999 6.94421C13.4238 6.94421 14.5799 8.10032 14.5799 9.52417C14.5799 10.948 13.4238 12.1042 11.9999 12.1042ZM11.9999 7.44421C10.8538 7.44421 9.91992 8.37801 9.91992 9.52417C9.91992 10.6703 10.8538 11.6042 11.9999 11.6042C13.1461 11.6042 14.0799 10.6703 14.0799 9.52417C14.0799 8.37801 13.146 7.44421 11.9999 7.44421Z" fill="#EFF6FF" stroke="#EFF6FF"/>
<path d="M16 18.2642C15.59 18.2642 15.25 17.9242 15.25 17.5142C15.25 16.1342 13.79 15.0043 12 15.0043C10.21 15.0043 8.75 16.1342 8.75 17.5142C8.75 17.9242 8.41 18.2642 8 18.2642C7.59 18.2642 7.25 17.9242 7.25 17.5142C7.25 15.3042 9.38 13.5043 12 13.5043C14.62 13.5043 16.75 15.3042 16.75 17.5142C16.75 17.9242 16.41 18.2642 16 18.2642Z" fill="#EFF6FF"/>
</svg>
